<svg class="poloto" width="800" height="500" viewBox="0 0 800 500" xmlns="http://www.w3.org/2000/svg"><style>.poloto { stroke-linecap:round; stroke-linejoin:round; font-family: 'Tahoma', sans-serif; background-color: #262626;} .poloto_scatter{stroke-width:7} .poloto_line{stroke-width:2} .poloto_text{fill: white;} .poloto_axis_lines{stroke: white;stroke-width:3;fill:none;stroke-dasharray:none} .poloto0stroke{stroke:  blue;} .poloto1stroke{stroke:  red;} .poloto2stroke{stroke:  green;} .poloto3stroke{stroke:  gold;} .poloto4stroke{stroke:  aqua;} .poloto5stroke{stroke:  lime;} .poloto6stroke{stroke:  orange;} .poloto7stroke{stroke:  chocolate;} .poloto0fill{fill:blue;} .poloto1fill{fill:red;} .poloto2fill{fill:green;} .poloto3fill{fill:gold;} .poloto4fill{fill:aqua;} .poloto5fill{fill:lime;} .poloto6fill{fill:orange;} .poloto7fill{fill:chocolate;}</style><text  class="poloto_text poloto_legend_text" alignment-baseline="middle" text-anchor="start" font-size="large" x="675" y="100" >Measurements</text><line  class="poloto_line poloto_legend_icon poloto0stroke poloto0legend" stroke="black" x1="680" x2="730" y1="81.25" y2="81.25" /><path  class="poloto_line poloto0stroke" fill="none" stroke="black" d=" M 150 397.2161128396709 L 150.5005005005005 396.54570892909186 L 151.00100100100101 388.07281834167463 L 151.5015015015015 394.0897147788451 L 152.002002002002 392.8972762895214 L 152.5025025025025 383.0040538339658 L 153.00300300300302 394.12353454706437 L 153.5035035035035 390.5922095136698 L 154.004004004004 395.92119160005643 L 154.5045045045045 394.8731295875788 L 155.00500500500502 392.9555791447207 L 155.5055055055055 397.3325645506745 L 156.006006006006 394.6778386247269 L 156.5065065065065 386.51325606668263 L 157.00700700700702 373.68863288672765 L 157.5075075075075 387.41588960721975 L 158.008008008008 389.4829270797956 L 158.5085085085085 393.02934183795753 L 159.00900900900902 370.23899626184306 L 159.5095095095095 393.0632513024482 L 160.01001001001 389.0793946929889 L 160.5105105105105 389.525191007515 L 161.01101101101102 389.2489964386 L 161.51151151151151 398.8391722641754 L 162.012012012012 393.1438266462677 L 162.5125125125125 367.7793536204074 L 163.01301301301302 393.8078594470571 L 163.51351351351352 384.7625789262771 L 164.014014014014 385.0121400889084 L 164.51451451451453 356.6641215989631 L 165.01501501501502 367.5283810812165 L 165.51551551551552 354.4815163784171 L 166.016016016016 364.83533153967903 L 166.5165165165165 345.10641386198296 L 167.01701701701703 390.41652651862546 L 167.51751751751752 399.13830240689623 L 168.018018018018 372.8554121472571 L 168.51851851851853 392.9240527423132 L 169.01901901901903 396.78555381734174 L 169.51951951951952 393.77728558631014 L 170.02002002002 390.8375958732819 L 170.52052052052053 348.22156469178395 L 171.02102102102103 366.0471716331123 L 171.52152152152152 371.9218308013095 L 172.022022022022 382.0107265586996 L 172.52252252252254 320.7288182194686 L 173.02302302302303 393.74141260324615 L 173.52352352352352 383.6036546106474 L 174.02402402402402 393.00907391532877 L 174.52452452452454 361.0388646671736 L 175.02502502502503 336.43237723666357 L 175.52552552552552 383.01995096299936 L 176.02602602602602 340.2714795598185 L 176.52652652652654 391.8252136990531 L 177.02702702702703 279.5073363394041 L 177.52752752752752 345.11366752800336 L 178.02802802802802 355.62382483025175 L 178.52852852852854 362.2876034526966 L 179.02902902902903 387.2227725415507 L 179.52952952952953 257.13545099848733 L 180.03003003003005 330.3631628869868 L 180.53053053053054 341.1647291895585 L 181.03103103103103 337.7460107221626 L 181.53153153153153 378.20984363192906 L 182.03203203203202 316.1012502452394 L 182.53253253253254 342.7463713619999 L 183.03303303303304 396.2277390095148 L 183.53353353353353 312.7231383909783 L 184.03403403403405 376.01041960615566 L 184.53453453453454 384.07411669271437 L 185.03503503503504 361.9898836064571 L 185.53553553553553 359.7868243757286 L 186.03603603603602 346.3313689353293 L 186.53653653653654 326.9135322887301 L 187.03703703703704 366.2245881103389 L 187.53753753753753 350.5718703311077 L 188.03803803803805 364.93111006748893 L 188.53853853853855 331.97163072166234 L 189.03903903903904 375.3268342681327 L 189.53953953953953 336.7879656140528 L 190.04004004004003 366.9555236270331 L 190.54054054054055 359.02868026393855 L 191.04104104104104 339.6835855943115 L 191.54154154154156 300.88275908255616 L 192.04204204204206 351.09093889075007 L 192.54254254254255 373.787347746304 L 193.04304304304304 381.82989732919555 L 193.54354354354354 372.31970728198525 L 194.04404404404406 340.95984552396766 L 194.54454454454455 369.79422522651913 L 195.04504504504504 396.44709138643384 L 195.54554554554556 363.1283685302253 L 196.04604604604606 249.88864042581596 L 196.54654654654655 350.12305924739366 L 197.04704704704704 318.9900813901052 L 197.54754754754754 388.75171610337344 L 198.04804804804806 388.8099047169639 L 198.54854854854855 222.65902887303145 L 199.04904904904905 337.16394560674394 L 199.54954954954957 300.94602901063865 L 200.05005005005006 278.6089382271074 L 200.55055055055055 275.12098366236535 L 201.05105105105105 303.2048215112219 L 201.55155155155154 345.0283537975807 L 202.05205205205206 348.24256628242034 L 202.55255255255256 379.5788950632896 L 203.05305305305305 296.7812317534388 L 203.55355355355357 381.97730445412435 L 204.05405405405406 249.21413203942421 L 204.55455455455456 354.9216373050778 L 205.05505505505505 310.5949303955151 L 205.55555555555554 353.48932265544596 L 206.05605605605606 289.0671589934754 L 206.55655655655656 355.71654498020945 L 207.05705705705708 377.01057187966876 L 207.55755755755757 379.4880821544255 L 208.05805805805807 321.2536289119206 L 208.55855855855856 271.9297856175067 L 209.05905905905905 326.3285699351504 L 209.55955955955957 367.8347640213372 L 210.06006006006007 372.26496722062075 L 210.56056056056056 399.16793055688504 L 211.06106106106108 292.7882492694739 L 211.56156156156158 312.583740756493 L 212.06206206206207 388.6233968456773 L 212.56256256256256 390.86062039944875 L 213.06306306306305 399.0634985794155 L 213.56356356356358 308.5218969926942 L 214.06406406406407 332.0550273677674 L 214.5645645645646 316.66248555363836 L 215.06506506506508 231.00063909803575 L 215.56556556556558 262.99184487298123 L 216.06606606606607 393.41744158416225 L 216.56656656656656 134.0988122344275 L 217.06706706706706 386.1170241511716 L 217.56756756756758 105.22357529364984 L 218.06806806806807 234.11591504336704 L 218.5685685685686 367.60435476384293 L 219.0690690690691 315.01607239843077 L 219.56956956956958 319.0111668608557 L 220.07007007007007 248.61272612681577 L 220.57057057057057 374.0160314163392 L 221.07107107107106 316.2567464657749 L 221.57157157157158 343.7956934663471 L 222.07207207207207 375.3685001926878 L 222.5725725725726 385.59179525886196 L 223.0730730730731 217.79661921096277 L 223.57357357357358 320.6743986089842 L 224.07407407407408 389.09922033251786 L 224.57457457457457 399.8307211680337 L 225.07507507507506 334.8676245565508 L 225.57557557557558 392.7145396516617 L 226.07607607607608 278.64471350651354 L 226.5765765765766 350.5639565050397 L 227.0770770770771 386.6801409591257 L 227.57757757757759 257.86027008196595 L 228.07807807807808 370.1376184315325 L 228.57857857857857 344.930042403755 L 229.07907907907907 313.7289123824405 L 229.5795795795796 349.11486983223443 L 230.08008008008008 212.27599449713153 L 230.5805805805806 313.0003370158746 L 231.0810810810811 372.84324199016396 L 231.5815815815816 213.12579499569026 L 232.08208208208208 317.5702160337351 L 232.58258258258257 337.5707302812217 L 233.0830830830831 312.2503688665753 L 233.5835835835836 356.48557824979724 L 234.0840840840841 344.6875977958598 L 234.5845845845846 365.62528827590074 L 235.0850850850851 389.52296859959205 L 235.5855855855856 360.04635051247124 L 236.08608608608608 311.3008297792279 L 236.58658658658658 360.7214793159784 L 237.0870870870871 396.65961414189655 L 237.5875875875876 375.6842582654268 L 238.0880880880881 351.13791665303194 L 238.5885885885886 224.35643152959548 L 239.0890890890891 352.1753388064582 L 239.5895895895896 263.91173759913846 L 240.0900900900901 381.34586574588127 L 240.59059059059058 222.2665498086019 L 241.0910910910911 309.2502611540662 L 241.5915915915916 358.93326644434154 L 242.09209209209212 291.2984970489447 L 242.5925925925926 312.3876886729306 L 243.0930930930931 396.2056244490891 L 243.5935935935936 364.5376580288479 L 244.0940940940941 370.4070501965571 L 244.59459459459458 190.93739534509737 L 245.0950950950951 306.3430828579679 L 245.5955955955956 342.885905719878 L 246.09609609609612 378.2361572528264 L 246.5965965965966 204.89806475387573 L 247.0970970970971 379.77222830981066 L 247.5975975975976 270.07145516705634 L 248.0980980980981 366.57185012950237 L 248.5985985985986 383.84700572519955 L 249.0990990990991 343.06476678434217 L 249.59959959959963 362.28562429462767 L 250.10010010010012 262.60031992701977 L 250.60060060060061 333.30553885524733 L 251.1011011011011 336.33892941240236 L 251.6016016016016 335.20763590975145 L 252.1021021021021 359.1725487138358 L 252.60260260260262 386.5517546863713 L 253.1031031031031 372.20157828400437 L 253.60360360360363 241.23972638195772 L 254.10410410410412 277.3723661993504 L 254.60460460460462 364.8934065713063 L 255.1051051051051 396.66371503081587 L 255.6056056056056 370.7264158784753 L 256.1061061061061 356.14134293782894 L 256.60660660660665 233.624553791798 L 257.10710710710714 397.07062046137537 L 257.60760760760763 393.5021245224006 L 258.1081081081081 100 L 258.6086086086086 390.41705261032257 L 259.1091091091091 306.6774983063281 L 259.6096096096096 347.12165297058345 L 260.1101101101101 271.7041880139626 L 260.6106106106106 363.6546412515904 L 261.1111111111111 311.1574316964539 L 261.61161161161164 355.3245547485852 L 262.11211211211213 345.7567510188649 L 262.6126126126126 368.8448557467679 L 263.1131131131131 382.4946641523161 L 263.6136136136136 364.2101632533303 L 264.11411411411416 380.97117532364257 L 264.61461461461465 256.8814328807308 L 265.11511511511515 356.33409138289556 L 265.61561561561564 357.8695852757263 L 266.11611611611613 382.9495342113711 L 266.6166166166166 293.01024179302124 L 267.1171171171171 304.31233471740876 L 267.6176176176176 316.60240807290774 L 268.1181181181181 381.9461628624999 L 268.6186186186186 301.9205371234671 L 269.11911911911915 280.1018671839315 L 269.61961961961964 268.6243580954143 L 270.12012012012013 317.24761640347623 L 270.6206206206206 391.96559445169476 L 271.1211211211211 348.98047832988726 L 271.6216216216216 363.4124551363058 L 272.12212212212216 336.6850060297062 L 272.62262262262266 302.8780488360602 L 273.12312312312315 339.9260705294779 L 273.62362362362364 349.14554384565463 L 274.12412412412414 298.723338746007 L 274.62462462462463 339.810034808891 L 275.1251251251251 286.098668289157 L 275.6256256256256 284.4026397895733 L 276.1261261261261 353.6903658996638 L 276.6266266266266 274.4034063350682 L 277.12712712712715 375.6277476444928 L 277.62762762762765 307.8033889497367 L 278.12812812812814 307.31057215344 L 278.62862862862863 346.4369400627665 L 279.1291291291292 367.2770877563262 L 279.6296296296297 381.98488221375356 L 280.13013013013017 382.6248607483835 L 280.63063063063066 389.3726521917806 L 281.13113113113116 334.32868958963644 L 281.63163163163165 277.935028311764 L 282.13213213213214 286.6848918892259 L 282.63263263263264 368.82208541982914 L 283.13313313313313 319.5825193592399 L 283.6336336336336 242.71166212147764 L 284.1341341341341 338.6504887760292 L 284.6346346346346 354.23721267495364 L 285.13513513513516 255.9631221669375 L 285.63563563563565 397.38181350103565 L 286.13613613613614 305.3271691250776 L 286.63663663663664 298.78327989723596 L 287.1371371371372 358.9701255834665 L 287.6376376376377 290.0504249916832 L 288.1381381381382 224.5498244851791 L 288.63863863863867 302.5516711240483 L 289.13913913913916 271.1126740665585 L 289.63963963963965 350.6604274311727 L 290.14014014014015 253.36139838984707 L 290.64064064064064 376.44361744777973 L 291.14114114114113 289.985408253005 L 291.6416416416416 331.10434978087943 L 292.1421421421421 380.9861814062449 L 292.6426426426426 360.98579809141046 L 293.14314314314316 270.67785531457844 L 293.64364364364366 377.1365214397164 L 294.14414414414415 243.97169508419748 L 294.6446446446447 294.6100140584823 L 295.1451451451452 367.56620114810914 L 295.6456456456457 293.0321571237572 L 296.1461461461462 386.834886652659 L 296.6466466466467 319.2635503856696 L 297.14714714714717 383.94574658220273 L 297.64764764764766 245.13274201524692 L 298.14814814814815 311.2094133457836 L 298.64864864864865 375.8494706694419 L 299.14914914914914 265.25821787940555 L 299.64964964964963 359.4917965167588 L 300.1501501501501 348.60209889629084 L 300.6506506506507 231.89401904409914 L 301.15115115115117 382.66373764481943 L 301.65165165165166 265.6493254101955 L 302.15215215215215 247.59727750905208 L 302.6526526526527 368.0921462567944 L 303.1531531531532 354.9483517547897 L 303.6536536536537 386.54127698433007 L 304.1541541541542 370.55655374570404 L 304.6546546546547 338.9125680344923 L 305.15515515515517 280.72589624581644 L 305.65565565565566 301.08068380759596 L 306.15615615615616 377.02854251018283 L 306.65665665665665 282.9759254377258 L 307.15715715715714 265.1757432362757 L 307.65765765765764 392.3675129044567 L 308.15815815815813 245.13372170046767 L 308.6586586586587 340.705967370746 L 309.1591591591592 265.4029644486881 L 309.65965965965967 372.38035944117036 L 310.16016016016016 313.23128194489317 L 310.6606606606607 287.29765810147137 L 311.1611611611612 367.15277545757607 L 311.6616616616617 343.48158571634985 L 312.1621621621622 353.60860003128334 L 312.6626626626627 371.7314261989786 L 313.1631631631632 310.5024962676931 L 313.66366366366367 364.16940682180217 L 314.16416416416416 333.5744521094947 L 314.66466466466466 308.44514640971335 L 315.16516516516515 290.2589110269801 L 315.66566566566564 288.9281887071807 L 316.1661661661662 296.18684926127725 L 316.6666666666667 253.0055887691844 L 317.1671671671672 361.17911350812045 L 317.6676676676677 368.1314329854292 L 318.1681681681682 392.4657269511233 L 318.6686686686687 320.5518214962261 L 319.1691691691692 358.5206364057231 L 319.6696696696697 163.12202790054215 L 320.1701701701702 396.82830928461544 L 320.6706706706707 301.87522118052505 L 321.1711711711712 279.17112313505487 L 321.6716716716717 383.7442356919914 L 322.17217217217217 367.09872518070483 L 322.67267267267266 386.0908432368079 L 323.17317317317315 343.37033221280507 L 323.67367367367365 351.46214558470973 L 324.1741741741742 305.0681832662118 L 324.6746746746747 214.0582977733281 L 325.1751751751752 367.16678376939103 L 325.6756756756757 369.21906656173184 L 326.1761761761762 387.08666428836796 L 326.6766766766767 356.99466012051937 L 327.1771771771772 336.11884445956014 L 327.6776776776777 394.0312384565869 L 328.1781781781782 335.10998209899117 L 328.6786786786787 273.0319120802492 L 329.1791791791792 396.8415779924454 L 329.6796796796797 304.4271948808183 L 330.1801801801802 380.15970683562705 L 330.68068068068067 381.99473574553286 L 331.18118118118116 122.37440408701292 L 331.6816816816817 154.47405119550854 L 332.1821821821822 355.47691047843267 L 332.6826826826827 288.79945615759544 L 333.1831831831832 379.75407003083785 L 333.68368368368374 390.28146128232294 L 334.18418418418423 238.6779580847714 L 334.6846846846847 363.9609472495499 L 335.1851851851852 382.48094363887685 L 335.6856856856857 362.36812066242805 L 336.1861861861862 316.4926625895662 L 336.6866866866867 338.99152957963184 L 337.1871871871872 299.2948031112606 L 337.6876876876877 395.6521415283461 L 338.1881881881882 229.6367106028527 L 338.68868868868867 299.1266751766021 L 339.18918918918916 312.95108515091033 L 339.6896896896897 380.68899944048036 L 340.1901901901902 364.32660138863577 L 340.6906906906907 200.93966418589469 L 341.1911911911912 398.2124067233924 L 341.69169169169174 354.5861274941548 L 342.19219219219224 360.32511352673237 L 342.69269269269273 339.7774817908834 L 343.1931931931932 236.1096367019633 L 343.6936936936937 352.5547730756901 L 344.1941941941942 353.71712358894655 L 344.6946946946947 280.95127293069584 L 345.1951951951952 367.54059992732857 L 345.6956956956957 323.9159067190853 L 346.1961961961962 332.1586616478649 L 346.6966966966967 354.23109825670025 L 347.1971971971972 329.77905999133975 L 347.6976976976977 325.4210231291001 L 348.1981981981982 380.17304114697146 L 348.6986986986987 295.9933239352986 L 349.19919919919926 250.07004624138665 L 349.69969969969975 390.5795771503513 L 350.20020020020024 391.55677211270347 L 350.70070070070074 311.36531607667837 L 351.20120120120123 368.2951476130163 L 351.7017017017017 194.18149457105417 L 352.2022022022022 336.82747384530944 L 352.7027027027027 341.42782320611866 L 353.2032032032032 207.31786183182967 L 353.7037037037037 385.0049965828802 L 354.2042042042042 246.51694452459512 L 354.7047047047047 375.0064684049893 L 355.20520520520523 339.1763957231634 L 355.7057057057057 328.3849577958525 L 356.2062062062062 297.1207338445696 L 356.7067067067067 358.5026063231685 L 357.20720720720726 231.59368930001492 L 357.70770770770775 365.2698566360754 L 358.20820820820825 333.3135594524869 L 358.70870870870874 358.9776595869355 L 359.20920920920923 333.79189397798854 L 359.7097097097097 366.98086935162405 L 360.2102102102102 220.48068926098478 L 360.7107107107107 260.6028071389462 L 361.2112112112112 359.2862621309654 L 361.7117117117117 368.9404903464131 L 362.2122122122122 374.0743292592959 L 362.71271271271274 212.3313929546204 L 363.21321321321324 234.45882772259267 L 363.71371371371373 247.2668785200917 L 364.2142142142142 273.9477080741557 L 364.7147147147148 363.10250664097856 L 365.21521521521527 342.2982748622557 L 365.71571571571576 368.77603507084604 L 366.21621621621625 349.82661216549246 L 366.71671671671675 291.63926567530586 L 367.21721721721724 383.1195723185634 L 367.71771771771773 391.72888155991944 L 368.2182182182182 368.3316110855666 L 368.7187187187187 395.63582022850454 L 369.2192192192192 375.3043399418458 L 369.7197197197197 314.26864061606767 L 370.2202202202202 223.12468261349755 L 370.72072072072075 211.54131065970458 L 371.22122122122124 311.7206352246878 L 371.72172172172174 381.37687181886236 L 372.22222222222223 389.58697476684 L 372.7227227227228 269.0879965377581 L 373.2232232232233 378.46050637900754 L 373.72372372372377 243.8821014537015 L 374.22422422422426 357.21617881462174 L 374.72472472472475 292.9478358440003 L 375.22522522522524 329.0391202757174 L 375.72572572572574 340.58133924804036 L 376.22622622622623 361.1551701818925 L 376.7267267267267 323.1100172031815 L 377.2272272272272 224.90385438740878 L 377.7277277277277 336.3233869437988 L 378.22822822822826 325.5750946716425 L 378.72872872872875 325.0884096055341 L 379.22922922922925 335.14384034785746 L 379.72972972972974 341.333904067011 L 380.2302302302303 365.28500917411884 L 380.7307307307308 299.5133715835817 L 381.2312312312313 370.8953867475027 L 381.73173173173177 305.4043673682312 L 382.23223223223226 376.5905448723449 L 382.73273273273276 395.40060525969665 L 383.23323323323325 369.86631389236106 L 383.73373373373374 350.39553634896436 L 384.23423423423424 380.7130204178431 L 384.73473473473473 346.54967861392026 L 385.2352352352352 369.8834071734829 L 385.7357357357357 341.0173399206126 L 386.23623623623627 374.93980257953825 L 386.73673673673676 371.1511270086489 L 387.23723723723725 391.2156024241003 L 387.73773773773775 394.5059928637787 L 388.2382382382383 364.2245707275303 L 388.7387387387388 367.950593273633 L 389.2392392392393 279.7933155951861 L 389.7397397397398 347.35560976233984 L 390.24024024024027 332.52484898016877 L 390.74074074074076 319.09891140813113 L 391.24124124124126 324.81274345332554 L 391.74174174174175 271.6661473482976 L 392.24224224224224 398.03593922900575 L 392.74274274274273 277.5004038757654 L 393.2432432432432 172.79854458632295 L 393.7437437437438 346.02602809324486 L 394.24424424424427 223.14708252193324 L 394.74474474474476 350.3678711513955 L 395.24524524524526 367.1262360152127 L 395.7457457457458 368.4649832870443 L 396.2462462462463 393.8633538534182 L 396.7467467467468 382.26881386323356 L 397.2472472472473 383.87769358126724 L 397.7477477477478 236.2289943925465 L 398.2482482482483 305.6005516114032 L 398.74874874874877 393.6946761958234 L 399.24924924924926 391.8705769263404 L 399.74974974974975 370.02205701532876 L 400.25025025025025 227.67848989443712 L 400.75075075075074 267.15146288593576 L 401.25125125125123 260.56650174801814 L 401.7517517517518 217.34754240320558 L 402.2522522522523 331.71079520861883 L 402.75275275275277 318.858702461583 L 403.25325325325326 274.30726215910727 L 403.7537537537538 362.01408706548324 L 404.2542542542543 322.1151876697557 L 404.7547547547548 283.838361159325 L 405.2552552552553 320.1922536712796 L 405.7557557557558 224.20166306455704 L 406.2562562562563 392.63828788209406 L 406.7567567567568 370.6251393886512 L 407.25725725725727 316.329159773185 L 407.75775775775776 340.4182395077574 L 408.2582582582583 340.14359253962857 L 408.7587587587588 301.32594347194805 L 409.2592592592593 260.0861424909473 L 409.7597597597598 324.6287035290668 L 410.2602602602603 323.9709208726946 L 410.7607607607608 320.1167993833401 L 411.26126126126127 328.3440609113282 L 411.76176176176176 394.27348903621476 L 412.2622622622623 344.0955052142707 L 412.7627627627628 387.2728310582737 L 413.2632632632633 341.4253523046148 L 413.7637637637638 376.16402593170864 L 414.2642642642643 378.94480546269244 L 414.7647647647648 353.6740835961318 L 415.26526526526527 373.0834095433654 L 415.76576576576576 386.2067148466242 L 416.2662662662663 347.6737981026669 L 416.7667667667668 348.3000703643037 L 417.2672672672673 368.53403836544686 L 417.7677677677678 279.1292932610025 L 418.2682682682683 233.7347687445255 L 418.7687687687688 309.35564571711035 L 419.2692692692693 360.309021756018 L 419.76976976976977 307.65658092632367 L 420.2702702702703 367.55932693354515 L 420.7707707707708 365.9582931836924 L 421.2712712712713 370.4669417878405 L 421.7717717717718 385.84708801582616 L 422.2722722722723 357.3916122403507 L 422.7727727727728 336.8094363752339 L 423.2732732732733 384.1405756114425 L 423.7737737737738 312.5771363580112 L 424.2742742742743 347.2041839866414 L 424.7747747747748 356.8835691014857 L 425.2752752752753 277.9144146137211 L 425.7757757757758 200.79687827265923 L 426.2762762762763 341.28083505695076 L 426.7767767767768 314.65900489505793 L 427.2772772772773 272.03645818873184 L 427.7777777777778 392.5122198282045 L 428.2782782782783 358.09955897955416 L 428.7787787787788 379.71221850348263 L 429.2792792792793 300.85042889554444 L 429.7797797797798 234.84220840811955 L 430.2802802802803 393.66952153460727 L 430.7807807807808 387.38600849193045 L 431.2812812812813 292.41539700406656 L 431.78178178178183 380.13048358343536 L 432.2822822822823 333.6800296612349 L 432.7827827827828 246.25813134694974 L 433.2832832832833 276.5478593211801 L 433.7837837837838 132.62733758395171 L 434.2842842842843 369.21091076148116 L 434.7847847847848 343.60746652961393 L 435.2852852852853 275.64912789314496 L 435.78578578578583 294.37309284566373 L 436.2862862862863 326.75137097184404 L 436.7867867867868 303.7999614689004 L 437.2872872872873 206.17384221968962 L 437.7877877877878 348.804388632957 L 438.2882882882883 286.9609414847661 L 438.7887887887888 353.165503164934 L 439.28928928928934 306.39265663793634 L 439.78978978978984 198.90330296710326 L 440.29029029029033 301.11401869113087 L 440.7907907907908 335.1224959877978 L 441.2912912912913 383.60372774229967 L 441.7917917917918 221.46785152177213 L 442.2922922922923 301.8624639565708 L 442.7927927927928 345.97355512350833 L 443.29329329329335 332.41595072743536 L 443.79379379379384 337.8965164873869 L 444.29429429429433 268.94052739009976 L 444.7947947947948 260.57294880830443 L 445.2952952952953 260.3375239005669 L 445.7957957957958 278.0343264164093 L 446.2962962962963 215.19643977076979 L 446.7967967967968 303.4132241899322 L 447.29729729729735 361.0992416145285 L 447.79779779779784 397.0292697517905 L 448.29829829829833 394.2185043889954 L 448.7987987987988 343.5950436520352 L 449.2992992992993 360.22769123161333 L 449.7997997997998 376.72093264580286 L 450.3003003003003 338.8270365723661 L 450.8008008008008 248.48682319174935 L 451.30130130130135 308.59204205799654 L 451.80180180180184 353.60884947988814 L 452.30230230230234 316.5426675812405 L 452.80280280280283 374.3661636565071 L 453.3033033033033 321.8310370160865 L 453.8038038038038 292.1157845226711 L 454.3043043043043 345.4830866851785 L 454.80480480480486 355.38838883293585 L 455.30530530530535 384.5627131150265 L 455.80580580580585 386.23511882717 L 456.30630630630634 179.21389859890078 L 456.80680680680683 349.004225665736 L 457.3073073073073 354.95771442447494 L 457.8078078078078 383.13459235148196 L 458.3083083083083 343.4114433408019 L 458.80880880880886 389.6907933384571 L 459.30930930930936 246.1778948288497 L 459.80980980980985 230.33636650144786 L 460.31031031031034 385.6478426375703 L 460.81081081081084 291.70950197465135 L 461.31131131131133 362.90391922215616 L 461.8118118118118 365.73186822624916 L 462.3123123123123 350.42470493860736 L 462.81281281281287 392.668495526489 L 463.31331331331336 391.3436123025078 L 463.81381381381385 273.6302521516251 L 464.31431431431434 311.23561837212344 L 464.81481481481484 242.926864120668 L 465.31531531531533 333.16450820267573 L 465.8158158158158 378.8086847254405 L 466.3163163163163 262.4804669835677 L 466.81681681681687 379.9444213507908 L 467.31731731731736 372.6297776279738 L 467.81781781781785 383.1763756858155 L 468.31831831831835 298.26918130986724 L 468.81881881881884 337.63867149365865 L 469.31931931931933 372.5465961086236 L 469.8198198198198 378.4073853157772 L 470.3203203203203 387.0457408101337 L 470.82082082082087 322.58845301437185 L 471.32132132132136 391.1819503956079 L 471.82182182182186 183.31614163026074 L 472.32232232232235 317.3763104196676 L 472.82282282282284 395.906054308409 L 473.32332332332334 257.18005295131525 L 473.82382382382383 379.5501334571088 L 474.3243243243244 285.60830574630506 L 474.8248248248249 309.9636705774461 L 475.32532532532537 379.7102762286102 L 475.82582582582586 349.70742525738973 L 476.32632632632635 336.57451336172676 L 476.82682682682685 287.711373109363 L 477.32732732732734 310.10912897234164 L 477.82782782782783 348.28141287612107 L 478.3283283283284 334.0231549166293 L 478.8288288288289 324.05665111579333 L 479.32932932932937 382.6841563176351 L 479.82982982982986 206.6074610740286 L 480.33033033033036 275.14874735622294 L 480.83083083083085 396.42345940484654 L 481.33133133133134 337.2355206813253 L 481.83183183183183 335.11536996470534 L 482.3323323323324 308.3953492201127 L 482.8328328328329 335.9067650944144 L 483.33333333333337 273.2572953778707 L 483.83383383383386 311.6565506400198 L 484.33433433433436 388.4165350824682 L 484.83483483483485 300.1917084400867 L 485.33533533533534 353.57136804529307 L 485.83583583583584 300.63761712274913 L 486.3363363363364 386.1043285391502 L 486.8368368368369 344.92607974863785 L 487.3373373373374 385.4945868167904 L 487.83783783783787 302.9560232456331 L 488.33833833833836 272.4919395104155 L 488.83883883883885 350.97729008753333 L 489.33933933933935 299.1381612944705 L 489.8398398398399 394.84221393008585 L 490.3403403403404 303.0448331612054 L 490.8408408408409 328.76913124794766 L 491.3413413413414 359.7970410808801 L 491.84184184184187 366.9261771009016 L 492.34234234234236 394.59813423259834 L 492.84284284284286 268.82737911989625 L 493.34334334334335 379.9773517977339 L 493.8438438438439 351.65319078317685 L 494.3443443443444 205.66931545018855 L 494.8448448448449 335.53951288846883 L 495.3453453453454 292.52195893012356 L 495.8458458458459 164.85128085564529 L 496.34634634634637 297.470055473671 L 496.84684684684686 344.69085935383225 L 497.34734734734735 396.9375520335606 L 497.8478478478479 297.3180488668035 L 498.3483483483484 397.7214915858471 L 498.8488488488489 363.52550464935564 L 499.3493493493494 347.95421964204235 L 499.8498498498499 233.3424920776806 L 500.35035035035037 320.6315482467441 L 500.85085085085086 357.3161738274743 L 501.35135135135135 308.3305554451503 L 501.8518518518519 388.04633705682323 L 502.3523523523524 382.7338672963118 L 502.8528528528529 315.6786765809411 L 503.3533533533534 353.3940307687903 L 503.8538538538539 395.1144522152776 L 504.35435435435437 324.24569418003574 L 504.85485485485486 390.7208350328542 L 505.3553553553554 305.5632543316442 L 505.8558558558559 362.1833053839286 L 506.3563563563564 365.15958469206726 L 506.8568568568569 347.1676418117851 L 507.3573573573574 206.37618316890897 L 507.8578578578579 248.75023575338707 L 508.3583583583584 309.06850462437274 L 508.85885885885887 321.88988828892275 L 509.3593593593594 390.6363178993122 L 509.8598598598599 200.33286295844945 L 510.3603603603604 270.8885940048125 L 510.8608608608609 241.74738477061308 L 511.3613613613614 278.49461506919306 L 511.8618618618619 378.121596029859 L 512.3623623623623 304.9649950728654 L 512.8628628628628 297.9124271626059 L 513.3633633633634 331.32203540503775 L 513.8638638638639 349.1479051756442 L 514.3643643643644 173.7237401850767 L 514.8648648648649 310.6280337424663 L 515.3653653653654 336.4726384046934 L 515.8658658658659 342.49360207336565 L 516.3663663663664 186.03431418008395 L 516.8668668668669 389.3279181570603 L 517.3673673673675 364.54329193270604 L 517.867867867868 357.18481837190814 L 518.3683683683685 349.308300802768 L 518.868868868869 394.0523977394219 L 519.3693693693695 373.90620149056343 L 519.86986986987 362.89126076868195 L 520.3703703703704 316.05980793609314 L 520.8708708708709 347.7675779277634 L 521.3713713713714 380.03201615308785 L 521.8718718718719 333.04372437479253 L 522.3723723723724 335.07254944712395 L 522.8728728728729 365.79427002904714 L 523.3733733733734 381.0975082316261 L 523.8738738738739 324.831350811774 L 524.3743743743744 282.3190478984041 L 524.8748748748749 331.0875934110045 L 525.3753753753754 346.66376229248624 L 525.8758758758759 380.5945945560678 L 526.3763763763764 328.01072021096405 L 526.8768768768768 205.71139856155128 L 527.3773773773773 296.92434009490677 L 527.8778778778778 337.40067166101414 L 528.3783783783783 356.8288421459551 L 528.8788788788789 213.28030560699503 L 529.3793793793794 304.5833115286621 L 529.8798798798799 195.08244105567425 L 530.3803803803804 234.44643750860916 L 530.8808808808809 390.7203415113596 L 531.3813813813814 352.7417705221761 L 531.8818818818819 337.0479985220495 L 532.3823823823824 360.80128545853427 L 532.882882882883 317.4245482416465 L 533.3833833833835 216.87002486518767 L 533.883883883884 299.3272387286379 L 534.3843843843845 296.26083281006714 L 534.884884884885 323.0168912322831 L 535.3853853853855 273.11494342095676 L 535.885885885886 385.16520707816363 L 536.3863863863864 381.4139447979469 L 536.8868868868869 379.4622527644116 L 537.3873873873874 301.4600313840958 L 537.8878878878879 342.5249994995321 L 538.3883883883884 284.6681429087315 L 538.8888888888889 344.750520233198 L 539.3893893893894 342.4441253750551 L 539.8898898898899 267.53867616645766 L 540.3903903903904 272.7289098875566 L 540.8908908908909 308.270592368644 L 541.3913913913914 167.07822005551634 L 541.8918918918919 336.73292764883115 L 542.3923923923924 382.0894922541615 L 542.8928928928929 309.8427056594054 L 543.3933933933934 321.00957623243943 L 543.8938938938938 280.3536248424523 L 544.3943943943945 356.83716868042546 L 544.894894894895 211.84900340914837 L 545.3953953953954 376.53155953430013 L 545.8958958958959 328.9838662287899 L 546.3963963963964 336.095261914546 L 546.8968968968969 307.34268510044444 L 547.3973973973974 232.23569204826777 L 547.8978978978979 337.51005302880066 L 548.3983983983985 235.54788037965542 L 548.898898898899 209.11215030590978 L 549.3993993993995 245.37601879454755 L 549.8998998999 385.22734558755633 L 550.4004004004005 320.4146098293079 L 550.900900900901 390.46004003206417 L 551.4014014014015 160.61729646299534 L 551.901901901902 373.5797426908482 L 552.4024024024025 352.07350532648456 L 552.902902902903 293.0919291453811 L 553.4034034034034 362.60125098263023 L 553.9039039039039 369.0711685090771 L 554.4044044044044 396.4667412346959 L 554.9049049049049 101.73267304485182 L 555.4054054054054 337.2934503118802 L 555.9059059059059 330.77890026403946 L 556.4064064064064 350.4821629322787 L 556.9069069069069 283.81125888359406 L 557.4074074074074 330.0912668598803 L 557.9079079079079 331.72762485190026 L 558.4084084084084 277.4221361092091 L 558.9089089089089 351.8597527399616 L 559.4094094094094 314.16575822528176 L 559.90990990991 317.5275231279502 L 560.4104104104105 273.59803420660535 L 560.910910910911 333.9184579606664 L 561.4114114114114 378.2424575899417 L 561.911911911912 380.7738846391219 L 562.4124124124124 297.94840060718434 L 562.9129129129129 226.85689073988388 L 563.4134134134134 298.7689695592436 L 563.913913913914 290.2579739848349 L 564.4144144144145 329.74027534062765 L 564.914914914915 338.5934694984114 L 565.4154154154155 347.3556934248512 L 565.915915915916 343.4582407704651 L 566.4164164164165 293.2081946412878 L 566.916916916917 377.1203921021733 L 567.4174174174175 355.02215481459643 L 567.917917917918 292.5194654938925 L 568.4184184184185 396.7386775465894 L 568.918918918919 324.1329869048824 L 569.4194194194195 368.4726094993433 L 569.91991991992 384.410412696812 L 570.4204204204204 367.9960945618524 L 570.9209209209209 294.0804460736705 L 571.4214214214214 335.4889456695713 L 571.9219219219219 215.86049162356892 L 572.4224224224224 368.0761273966243 L 572.9229229229229 305.88407120547333 L 573.4234234234234 386.51681748546895 L 573.9239239239239 339.0157353464691 L 574.4244244244244 383.9634761198591 L 574.9249249249249 393.05897069857997 L 575.4254254254255 371.5917286157712 L 575.925925925926 155.13783382130578 L 576.4264264264265 372.9842161703609 L 576.926926926927 378.5862877938671 L 577.4274274274275 221.84240489631875 L 577.927927927928 322.8137487947712 L 578.4284284284284 341.1230362478127 L 578.9289289289289 279.9900683446359 L 579.4294294294295 359.36189100227557 L 579.92992992993 341.7366095947893 L 580.4304304304305 369.88585678832663 L 580.930930930931 149.84619625442295 L 581.4314314314315 224.7837950823345 L 581.931931931932 363.7368715245063 L 582.4324324324325 317.630882005231 L 582.932932932933 341.5456718071386 L 583.4334334334335 393.77298875969734 L 583.933933933934 387.1937091143286 L 584.4344344344345 270.4152954560021 L 584.934934934935 374.8890321739356 L 585.4354354354355 324.5082266494736 L 585.935935935936 341.8922687857527 L 586.4364364364365 250.29800552401983 L 586.936936936937 379.2274699828854 L 587.4374374374374 259.8004179508913 L 587.9379379379379 392.8575729092468 L 588.4384384384384 373.8705947810391 L 588.9389389389389 224.27790460687822 L 589.4394394394394 262.7313253210278 L 589.9399399399399 251.05588439956972 L 590.4404404404404 370.32477428112725 L 590.940940940941 291.33246942978843 L 591.4414414414415 347.5507042671787 L 591.941941941942 384.4255471427653 L 592.4424424424425 333.8051650515423 L 592.942942942943 369.2098240734159 L 593.4434434434435 314.7988723239992 L 593.943943943944 345.30586798951487 L 594.4444444444445 373.08609708250947 L 594.9449449449451 369.7866095883232 L 595.4454454454456 182.52135434470333 L 595.945945945946 347.9724226791568 L 596.4464464464465 382.61569808541964 L 596.946946946947 247.97790739408825 L 597.4474474474475 330.21144419106867 L 597.947947947948 358.12455382763903 L 598.4484484484485 368.35079626781805 L 598.948948948949 388.05806981526484 L 599.4494494494495 209.4234236602776 L 599.94994994995 345.9255697100049 L 600.4504504504505 370.49213562736884 L 600.950950950951 275.38404794749283 L 601.4514514514515 385.75634952422257 L 601.951951951952 351.00993862787146 L 602.4524524524525 381.5068354039948 L 602.952952952953 394.95436859817613 L 603.4534534534534 363.1385230730418 L 603.9539539539539 310.49941830249327 L 604.4544544544544 355.21546045526816 L 604.9549549549549 333.4590737835536 L 605.4554554554554 376.9760648773618 L 605.9559559559559 343.9385937814409 L 606.4564564564565 386.12890715887613 L 606.956956956957 289.25773562039814 L 607.4574574574575 275.0323718422422 L 607.957957957958 256.92340182384265 L 608.4584584584585 366.8186261851694 L 608.958958958959 329.1272739288397 L 609.4594594594595 318.349876941416 L 609.95995995996 363.1393845423031 L 610.4604604604606 394.22878222164866 L 610.9609609609611 381.61733260057866 L 611.4614614614616 346.42484315194486 L 611.9619619619621 297.5283858448941 L 612.4624624624626 360.7355844662591 L 612.962962962963 326.17904802766714 L 613.4634634634635 307.13482066195513 L 613.963963963964 284.5457874691589 L 614.4644644644645 340.7880923518662 L 614.964964964965 379.7752605523324 L 615.4654654654655 305.4589732229055 L 615.965965965966 353.42329295245025 L 616.4664664664665 295.4088566618402 L 616.966966966967 333.71560871979165 L 617.4674674674675 328.53262418525793 L 617.967967967968 382.071107765744 L 618.4684684684685 361.49689537443237 L 618.968968968969 393.9477098662878 L 619.4694694694695 383.82209364825314 L 619.96996996997 389.315628661117 L 620.4704704704704 382.4988211217311 L 620.9709709709709 349.8877349036185 L 621.4714714714714 337.734896017643 L 621.971971971972 392.2633365415875 L 622.4724724724725 379.48754380314097 L 622.972972972973 395.08770704780613 L 623.4734734734735 386.11223754872464 L 623.973973973974 348.3599790909875 L 624.4744744744745 398.8469648045558 L 624.974974974975 336.79220217706876 L 625.4754754754755 315.9562415748462 L 625.9759759759761 394.2835735117616 L 626.4764764764766 385.9115270808772 L 626.9769769769771 397.58541623772885 L 627.4774774774776 375.97085736250153 L 627.9779779779781 377.9629084073173 L 628.4784784784786 368.98127140229616 L 628.9789789789791 388.5052864826276 L 629.4794794794796 376.96379391772297 L 629.97997997998 368.526050044282 L 630.4804804804805 384.63467570257876 L 630.980980980981 363.6544830382001 L 631.4814814814815 384.4883498891514 L 631.981981981982 384.5636815778939 L 632.4824824824825 390.9154377473775 L 632.982982982983 396.7916554452833 L 633.4834834834835 388.1195838829845 L 633.983983983984 380.3885049052138 L 634.4844844844845 393.12096540959334 L 634.984984984985 374.8247971450236 L 635.4854854854855 397.7034871111467 L 635.985985985986 372.75455315422704 L 636.4864864864865 384.860661494532 L 636.986986986987 357.0367941294734 L 637.4874874874876 374.155451199595 L 637.987987987988 376.0970989224924 L 638.4884884884885 381.10396854158523 L 638.988988988989 387.76488552079786 L 639.4894894894895 394.54743587648 L 639.98998998999 382.41826267760797 L 640.4904904904905 389.477059641431 L 640.990990990991 387.1871559206499 L 641.4914914914916 393.81101003381355 L 641.9919919919921 379.5941774433485 L 642.4924924924926 390.736372648252 L 642.9929929929931 392.3851665169462 L 643.4934934934936 388.7530963993514 L 643.9939939939941 395.9545281289603 L 644.4944944944946 387.37685620898566 L 644.9949949949951 393.58895302276073 L 645.4954954954956 377.2113777456775 L 645.995995995996 397.3674229018237 L 646.4964964964965 387.71368078653745 L 646.996996996997 396.04194484939353 L 647.4974974974975 397.59659527390744 L 647.997997997998 386.5221161127021 L 648.4984984984985 397.563957829458 L 648.998998998999 394.8178757959908 L 649.4994994994995 390.10795826200354 L 650 397.3490687848272" /><text  class="poloto_text poloto_legend_text" alignment-baseline="middle" text-anchor="start" font-size="large" x="675" y="150" >Kalman Filter</text><line  class="poloto_line poloto_legend_icon poloto1stroke poloto1legend" stroke="black" x1="680" x2="730" y1="131.25" y2="131.25" /><path  class="poloto_line poloto1stroke" fill="none" stroke="black" d=" M 150 397.2161128396709 L 150.5005005005005 396.73404085901507 L 151.00100100100101 388.1747034346688 L 151.5015015015015 392.7374714855977 L 152.002002002002 392.0879539807345 L 152.5025025025025 382.7818785633084 L 153.00300300300302 395.4101720083137 L 153.5035035035035 392.8233348779678 L 154.004004004004 397.1397231357672 L 154.5045045045045 394.4311339932312 L 155.00500500500502 395.6348822038656 L 155.5055055055055 396.5573886142389 L 156.006006006006 397.83526989971335 L 156.5065065065065 387.65762610581385 L 157.00700700700702 374.21723508467335 L 157.5075075075075 383.36538873547624 L 158.008008008008 386.9761442415319 L 158.5085085085085 394.3062266509929 L 159.00900900900902 376.70471242676456 L 159.5095095095095 390.34148137261656 L 160.01001001001 392.68667804803613 L 160.5105105105105 395.1625065302818 L 161.01101101101102 390.47801024492765 L 161.51151151151151 394.42424504252966 L 162.012012012012 395.60581948065965 L 162.5125125125125 375.0042878046366 L 163.01301301301302 385.94155137589644 L 163.51351351351352 383.5070403006201 L 164.014014014014 396.25317753571966 L 164.51451451451453 369.35239411507996 L 165.01501501501502 388.75548000988704 L 165.51551551551552 366.5362711784592 L 166.016016016016 367.23754254626937 L 166.5165165165165 370.8263481458577 L 167.01701701701703 382.019119607571 L 167.51751751751752 390.0970047051065 L 168.018018018018 376.35171026317397 L 168.51851851851853 384.7196546676316 L 169.01901901901903 389.9173455942318 L 169.51951951951952 389.04458753250236 L 170.02002002002 386.1986212035202 L 170.52052052052053 370.85033025707014 L 171.02102102102103 388.65634466657133 L 171.52152152152152 390.44849689266135 L 172.022022022022 386.73172187042826 L 172.52252252252254 349.36869029191007 L 173.02302302302303 380.88723879973656 L 173.52352352352352 384.51677447123376 L 174.02402402402402 388.71000533622043 L 174.52452452452454 380.17050462909697 L 175.02502502502503 357.17783227879437 L 175.52552552552552 390.26132168449556 L 176.02602602602602 365.77332220374365 L 176.52652652652654 382.7526303420465 L 177.02702702702703 324.29374386422296 L 177.52752752752752 383.12593592636296 L 178.02802802802802 375.82651008972925 L 178.52852852852854 372.515129044534 L 179.02902902902903 391.3937297714488 L 179.52952952952953 322.79479018296564 L 180.03003003003005 382.9153954972143 L 180.53053053053054 363.4497087375692 L 181.03103103103103 347.1577342808443 L 181.53153153153153 377.67201709775316 L 182.03203203203202 365.2910321554871 L 182.53253253253254 356.98095692399903 L 183.03303303303304 379.23161829516596 L 183.53353353353353 362.7054502873566 L 184.03403403403405 365.7210949067097 L 184.53453453453454 370.92159146104393 L 185.03503503503504 391.2623016923478 L 185.53553553553553 378.91051426945637 L 186.03603603603602 365.5060635338402 L 186.53653653653654 376.89083796280227 L 187.03703703703704 367.90746757315014 L 187.53753753753753 383.41863656305054 L 188.03803803803805 376.8413707127618 L 188.53853853853855 355.23127205268486 L 189.03903903903904 382.05167848264523 L 189.53953953953953 376.0548734757052 L 190.04004004004003 378.46465583723773 L 190.54054054054055 370.2012897958655 L 191.04104104104104 379.96881217866 L 191.54154154154156 351.3768349525773 L 192.04204204204206 352.76455805208946 L 192.54254254254255 363.8874001186828 L 193.04304304304304 380.36598482094297 L 193.54354354354354 385.98996129479144 L 194.04404404404406 365.3626254466816 L 194.54454454454455 363.53671697432736 L 195.04504504504504 376.44850459143026 L 195.54554554554556 387.30811157035345 L 196.04604604604606 331.6421174731701 L 196.54654654654655 377.31547053280394 L 197.04704704704704 350.3410290495274 L 197.54754754754754 362.8143188972901 L 198.04804804804806 370.30338143036306 L 198.54854854854855 338.2567032541565 L 199.04904904904905 338.99233588527153 L 199.54954954954957 378.6460626062936 L 200.05005005005006 355.13243022432306 L 200.55055055055055 364.72579289943417 L 201.05105105105105 337.0654075179133 L 201.55155155155154 336.3988269350115 L 202.05205205205206 376.24425069795024 L 202.55255255255256 373.23424069677486 L 203.05305305305305 368.092584266312 L 203.55355355355357 374.9323388631258 L 204.05405405405406 328.0924998849388 L 204.55455455455456 373.08939015882174 L 205.05505505505505 351.7651970325576 L 205.55555555555554 355.25210093709785 L 206.05605605605606 331.7490982645221 L 206.55655655655656 377.1828250338762 L 207.05705705705708 377.1776180018331 L 207.55755755755757 376.7358054115638 L 208.05805805805807 372.5188085848346 L 208.55855855855856 363.2462590186736 L 209.05905905905905 350.8550584099414 L 209.55955955955957 379.1957867690701 L 210.06006006006007 381.83127863296255 L 210.56056056056056 384.59813466260783 L 211.06106106106108 362.8254795786316 L 211.56156156156158 345.8805628074838 L 212.06206206206207 362.64981280580224 L 212.56256256256256 374.6941074409074 L 213.06306306306305 382.9559728715333 L 213.56356356356358 358.17006387745613 L 214.06406406406407 350.4121708200583 L 214.5645645645646 339.8877625595628 L 215.06506506506508 302.3467744844016 L 215.56556556556558 377.9956192160491 L 216.06606606606607 380.4700650674801 L 216.56656656656656 299.9514114431773 L 217.06706706706706 328.88258871609617 L 217.56756756756758 245.4921671811521 L 218.06806806806807 353.7068644356008 L 218.5685685685686 372.4890667336973 L 219.0690690690691 372.79508179824745 L 219.56956956956958 358.0656713313931 L 220.07007007007007 322.74312616755753 L 220.57057057057057 342.66520042019084 L 221.07107107107106 335.4258984220391 L 221.57157157157158 339.8284257404922 L 222.07207207207207 353.3330448139972 L 222.5725725725726 374.4213898678992 L 223.0730730730731 344.9950637322903 L 223.57357357357358 333.9680952348624 L 224.07407407407408 356.3451247295823 L 224.57457457457457 367.8814638367934 L 225.07507507507506 381.97016555333204 L 225.57557557557558 382.24161353463654 L 226.07607607607608 351.9930696854801 L 226.5765765765766 379.4810479521224 L 227.0770770770771 377.78407034650706 L 227.57757757757759 337.60416185005454 L 228.07807807807808 365.9434549023595 L 228.57857857857857 357.3148265809992 L 229.07907907907907 340.1664798497258 L 229.5795795795796 371.24245459927664 L 230.08008008008008 316.8759959257877 L 230.5805805805806 313.3225232915489 L 231.0810810810811 332.2302210901962 L 231.5815815815816 290.60850792984826 L 232.08208208208208 297.3500090371125 L 232.58258258258257 308.4848920551573 L 233.0830830830831 307.5781423584128 L 233.5835835835836 321.37012588793766 L 234.0840840840841 362.805569167147 L 234.5845845845846 361.34758515858056 L 235.0850850850851 367.8863913399789 L 235.5855855855856 387.76474806733324 L 236.08608608608608 377.1773876168454 L 236.58658658658658 390.01205519230825 L 237.0870870870871 391.1359860200017 L 237.5875875875876 385.57533538111284 L 238.0880880880881 389.2322311211496 L 238.5885885885886 344.9407143966269 L 239.0890890890891 345.4231963517865 L 239.5895895895896 317.5351250351173 L 240.0900900900901 347.0097041812297 L 240.59059059059058 374.0926334544229 L 241.0910910910911 374.2903353508677 L 241.5915915915916 368.18925698210865 L 242.09209209209212 343.2625673390726 L 242.5925925925926 378.4018840738309 L 243.0930930930931 380.92440150203083 L 243.5935935935936 385.4337072777796 L 244.0940940940941 384.0792095379337 L 244.59459459459458 325.86401130829535 L 245.0950950950951 317.7357559891577 L 245.5955955955956 357.86283111651596 L 246.09609609609612 374.58919460552045 L 246.5965965965966 354.736971354371 L 247.0970970970971 363.082882935896 L 247.5975975975976 336.65494392355833 L 248.0980980980981 365.51295563696686 L 248.5985985985986 379.4894773678668 L 249.0990990990991 370.61549067859914 L 249.59959959959963 369.5257479318603 L 250.10010010010012 339.81191669842946 L 250.60060060060061 339.64758274837436 L 251.1011011011011 377.77101996734405 L 251.6016016016016 386.6304050260065 L 252.1021021021021 387.8367592405372 L 252.60260260260262 386.9903691698943 L 253.1031031031031 383.479178369517 L 253.60360360360363 345.4773196324053 L 254.10410410410412 326.9939713967069 L 254.60460460460462 359.8062126137225 L 255.1051051051051 373.05385093242 L 255.6056056056056 388.6179769859569 L 256.1061061061061 381.14300429605487 L 256.60660660660665 340.58070151544183 L 257.10710710710714 358.4810768722947 L 257.60760760760763 373.8497714410936 L 258.1081081081081 295.17592638890216 L 258.6086086086086 324.59336766399736 L 259.1091091091091 372.80268320835705 L 259.6096096096096 366.725055425048 L 260.1101101101101 341.0845936977798 L 260.6106106106106 369.6002974236234 L 261.1111111111111 355.8813388199864 L 261.61161161161164 356.94839064585955 L 262.11211211211213 385.0378898737247 L 262.6126126126126 392.38064499191137 L 263.1131131131131 388.6055311013465 L 263.6136136136136 381.92911282170274 L 264.11411411411416 379.38590977718036 L 264.61461461461465 343.0857258578398 L 265.11511511511515 369.9491771070919 L 265.61561561561564 385.6829132973769 L 266.11611611611613 388.1018950263586 L 266.6166166166166 363.5452041224512 L 267.1171171171171 345.7797311407066 L 267.6176176176176 381.10591821516374 L 268.1181181181181 388.64566217544575 L 268.6186186186186 377.802181966815 L 269.11911911911915 378.08943116765835 L 269.61961961961964 346.418654891348 L 270.12012012012013 336.87444579775735 L 270.6206206206206 351.2677117374021 L 271.1211211211211 349.1670662384762 L 271.6216216216216 371.2129026605834 L 272.12212212212216 387.58414161132265 L 272.62262262262266 367.39237038723854 L 273.12312312312315 358.73729990874483 L 273.62362362362364 380.26692241977594 L 274.12412412412414 381.9979650159455 L 274.62462462462463 372.5892016307515 L 275.1251251251251 384.3650989697834 L 275.6256256256256 356.4263321747413 L 276.1261261261261 354.14805813299193 L 276.6266266266266 392.01139019970054 L 277.12712712712715 390.32883906938224 L 277.62762762762765 380.494960803559 L 278.12812812812814 384.4845070786705 L 278.62862862862863 391.49216608406493 L 279.1291291291292 388.9607606526465 L 279.6296296296297 385.6148289338957 L 280.13013013013017 383.1383871859799 L 280.63063063063066 387.2437034660727 L 281.13113113113116 373.1226794752579 L 281.63163163163165 346.5110320282532 L 282.13213213213214 329.06595038453946 L 282.63263263263264 355.4019475965108 L 283.13313313313313 386.1705561380296 L 283.6336336336336 365.42129070150236 L 284.1341341341341 359.4216789171322 L 284.6346346346346 359.0046259824779 L 285.13513513513516 382.6519448903294 L 285.63563563563565 384.9025708018347 L 286.13613613613614 380.29543873922233 L 286.63663663663664 381.8301476349783 L 287.1371371371372 375.19642552668876 L 287.6376376376377 386.61922870618264 L 288.1381381381382 346.1052586839113 L 288.63863863863867 385.4412587097173 L 289.13913913913916 357.55786624709043 L 289.63963963963965 357.2178727628745 L 290.14014014014015 387.1179035074644 L 290.64064064064064 391.24867141211126 L 291.14114114114113 367.8429931019711 L 291.6416416416416 357.19661628173634 L 292.1421421421421 372.0210634574331 L 292.6426426426426 387.325785869519 L 293.14314314314316 356.23390392386284 L 293.64364364364366 371.856148807991 L 294.14414414414415 376.64794866317374 L 294.6446446446447 380.7660698168439 L 295.1451451451452 387.8601035117305 L 295.6456456456457 373.6057141787824 L 296.1461461461462 377.8321219767919 L 296.6466466466467 363.7710045834625 L 297.14714714714717 370.37003516162815 L 297.64764764764766 339.1632406452135 L 298.14814814814815 377.8576430777666 L 298.64864864864865 378.7092523682338 L 299.14914914914914 377.61117341201503 L 299.64964964964963 372.0149619059136 L 300.1501501501501 387.5180621753304 L 300.6506506506507 348.58333800878876 L 301.15115115115117 364.5959925574603 L 301.65165165165166 386.32871732469874 L 302.15215215215215 363.2809958412158 L 302.6526526526527 363.68090304803263 L 303.1531531531532 382.5503693001381 L 303.6536536536537 382.06829189611165 L 304.1541541541542 377.8361704255912 L 304.6546546546547 367.36506799715966 L 305.15515515515517 344.05863568339186 L 305.65565565565566 381.0986330139709 L 306.15615615615616 379.2361080286722 L 306.65665665665665 383.7428275035949 L 307.15715715715714 355.3214927879363 L 307.65765765765764 365.65906047465154 L 308.15815815815813 336.21315506077667 L 308.6586586586587 338.39228469062374 L 309.1591591591592 387.26191268516806 L 309.65965965965967 384.2311011041012 L 310.16016016016016 368.0238309267943 L 310.6606606606607 348.8066166036533 L 311.1611611611612 370.1514353858944 L 311.6616616616617 388.27196847498357 L 312.1621621621622 382.4149054158788 L 312.6626626626627 380.3768531392115 L 313.1631631631632 364.87378805594295 L 313.66366366366367 383.77610146907045 L 314.16416416416416 392.1566097898636 L 314.66466466466466 370.85085003993976 L 315.16516516516515 389.9992727527202 L 315.66566566566564 368.0796510937857 L 316.1661661661662 389.881326496202 L 316.6666666666667 366.4104371794678 L 317.1671671671672 384.30829645150703 L 317.6676676676677 381.1819829390877 L 318.1681681681682 386.96309723470534 L 318.6686686686687 384.456608639307 L 319.1691691691692 391.91778239450616 L 319.6696696696697 341.82854505327805 L 320.1701701701702 357.11238516724825 L 320.6706706706707 390.0862598624972 L 321.1711711711712 365.51248211380846 L 321.6716716716717 370.84802784976586 L 322.17217217217217 386.8935304015735 L 322.67267267267266 387.7085789311141 L 323.17317317317315 391.9365636655016 L 323.67367367367365 382.00970669049497 L 324.1741741741742 390.2690155334026 L 324.6746746746747 359.3739893511192 L 325.1751751751752 360.2754152439248 L 325.6756756756757 361.46846977027394 L 326.1761761761762 366.6814142423722 L 326.6766766766767 363.1703487038527 L 327.1771771771772 385.79976559628847 L 327.6776776776777 388.4328202763853 L 328.1781781781782 388.3938361267842 L 328.6786786786787 372.42226135352814 L 329.1791791791792 377.2897800378093 L 329.6796796796797 358.80748475683913 L 330.1801801801802 362.9684123487485 L 330.68068068068067 375.756218382278 L 331.18118118118116 312.56687788196643 L 331.6816816816817 272.65932639826224 L 332.1821821821822 313.99156042791293 L 332.6826826826827 361.09349180034707 L 333.1831831831832 364.91760744624804 L 333.68368368368374 373.7664859874217 L 334.18418418418423 340.08952711651176 L 334.6846846846847 362.56156313456563 L 335.1851851851852 366.41266718363096 L 335.6856856856857 381.90202860299684 L 336.1861861861862 365.42812954906907 L 336.6866866866867 387.03499832098845 L 337.1871871871872 383.88974296724274 L 337.6876876876877 387.54918451532103 L 338.1881881881882 350.9461320753619 L 338.68868868868867 385.7592545784461 L 339.18918918918916 383.8472985104363 L 339.6896896896897 389.3342896779691 L 340.1901901901902 391.9402073157933 L 340.6906906906907 351.8058918607446 L 341.1911911911912 362.7675336801977 L 341.69169169169174 359.8116070864113 L 342.19219219219224 359.309842421904 L 342.69269269269273 382.04269108310865 L 343.1931931931932 373.20368963791174 L 343.6936936936937 389.7978790122226 L 344.1941941941942 391.58553863979563 L 344.6946946946947 377.34729699789153 L 345.1951951951952 391.4911473549005 L 345.6956956956957 386.4204941972252 L 346.1961961961962 393.09884617600477 L 346.6966966966967 391.7659384264889 L 347.1971971971972 389.39039255321245 L 347.6976976976977 375.2777551937314 L 348.1981981981982 377.2603578884414 L 348.6986986986987 389.6604713699198 L 349.19919919919926 371.21665050616565 L 349.69969969969975 376.69248032993835 L 350.20020020020024 381.0508389786242 L 350.70070070070074 365.6278380979045 L 351.20120120120123 382.1452793704161 L 351.7017017017017 338.2165724792114 L 352.2022022022022 338.82543099085495 L 352.7027027027027 368.2071225839083 L 353.2032032032032 374.76953288857004 L 353.7037037037037 377.3857603365847 L 354.2042042042042 379.722730191357 L 354.7047047047047 390.210927250665 L 355.20520520520523 379.95522562716013 L 355.7057057057057 393.54019556329143 L 356.2062062062062 378.57965997350135 L 356.7067067067067 392.27094879010394 L 357.20720720720726 362.58964011937525 L 357.70770770770775 379.0471050287778 L 358.20820820820825 395.29575811577416 L 358.70870870870874 390.8842884199237 L 359.20920920920923 378.64589033321084 L 359.7097097097097 376.9988894166384 L 360.2102102102102 374.0699868682321 L 360.7107107107107 385.92256126215045 L 361.2112112112112 394.01096181136154 L 361.7117117117117 389.96692526322227 L 362.2122122122122 394.7452210964732 L 362.71271271271274 353.1034245705734 L 363.21321321321324 323.98463916852006 L 363.71371371371373 376.36801252552715 L 364.2142142142142 384.5991837222224 L 364.7147147147148 381.674701677473 L 365.21521521521527 394.0335680646713 L 365.71571571571576 389.0224685858155 L 366.21621621621625 379.54441896809465 L 366.71671671671675 357.95914281653734 L 367.21721721721724 363.28494796444556 L 367.71771771771773 372.9514784715671 L 368.2182182182182 386.15715358092206 L 368.7187187187187 388.55513594985257 L 369.2192192192192 384.5466262893076 L 369.7197197197197 367.46456605319815 L 370.2202202202202 383.6504010088321 L 370.72072072072075 366.3345116825644 L 371.22122122122124 352.48062615525976 L 371.72172172172174 367.0924518784642 L 372.22222222222223 376.6270733650089 L 372.7227227227228 350.46631751737516 L 373.2232232232233 356.3859571663771 L 373.72372372372377 328.94180161640304 L 374.22422422422426 355.2961488961094 L 374.72472472472475 389.3354376407002 L 375.22522522522524 374.8113226277609 L 375.72572572572574 365.9071671673648 L 376.22622622622623 363.8748612219657 L 376.7267267267267 353.4237466111534 L 377.2272272272272 322.20769145805 L 377.7277277277277 324.66962505251314 L 378.22822822822826 324.07842090524866 L 378.72872872872875 323.4246224116372 L 379.22922922922925 356.0459343766713 L 379.72972972972974 351.8022073534694 L 380.2302302302303 354.1031950773193 L 380.7307307307308 386.9686297154293 L 381.2312312312313 393.9141458115167 L 381.73173173173177 380.7855335596818 L 382.23223223223226 381.08069692001544 L 382.73273273273276 385.3273123314148 L 383.23323323323325 393.7289110166509 L 383.73373373373374 386.73897988611776 L 384.23423423423424 386.3560747936348 L 384.73473473473473 396.7069005883589 L 385.2352352352352 389.94465470472176 L 385.7357357357357 394.23911899139273 L 386.23623623623627 391.2354240837742 L 386.73673673673676 399.2672723433226 L 387.23723723723725 398.4581888588914 L 387.73773773773775 398.54314409039654 L 388.2382382382383 389.91856833573684 L 388.7387387387388 383.88208406709623 L 389.2392392392393 358.5763238534986 L 389.7397397397398 355.059799712589 L 390.24024024024027 380.4131457322128 L 390.74074074074076 365.2771665052002 L 391.24124124124126 390.3317976503082 L 391.74174174174175 378.82908657045806 L 392.24224224224224 384.4742335789782 L 392.74274274274273 360.3182955929834 L 393.2432432432432 376.5070503972016 L 393.7437437437438 368.54357223150026 L 394.24424424424427 333.52175109437735 L 394.74474474474476 359.86508351614316 L 395.24524524524526 376.2274220517733 L 395.7457457457458 373.546907875694 L 396.2462462462463 378.02740248144255 L 396.7467467467468 386.7233887311701 L 397.2472472472473 385.18694501209796 L 397.7477477477478 374.15329600313123 L 398.2482482482483 358.9980963242208 L 398.74874874874877 371.2851108779588 L 399.24924924924926 377.1509515117465 L 399.74974974974975 390.20091145194635 L 400.25025025025025 353.2667243064521 L 400.75075075075074 333.90592259345465 L 401.25125125125123 382.1056732331207 L 401.7517517517518 344.6575404929447 L 402.2522522522523 342.61379527607687 L 402.75275275275277 338.0308687859526 L 403.25325325325326 323.99190718762134 L 403.7537537537538 333.9696077658284 L 404.2542542542543 332.11233720542555 L 404.7547547547548 321.67804812393524 L 405.2552552552553 359.69561742620556 L 405.7557557557558 328.7036105770747 L 406.2562562562563 344.9813554864091 L 406.7567567567568 351.9777954452532 L 407.25725725725727 344.5797418791039 L 407.75775775775776 372.7235400358438 L 408.2582582582583 393.9336496414945 L 408.7587587587588 373.3874776936815 L 409.2592592592593 387.308398724635 L 409.7597597597598 391.9802040510724 L 410.2602602602603 377.7526005431016 L 410.7607607607608 396.752758472574 L 411.26126126126127 386.25353423722186 L 411.76176176176176 389.325930390891 L 412.2622622622623 379.7567065892828 L 412.7627627627628 388.5564391093479 L 413.2632632632633 394.103352651215 L 413.7637637637638 389.50530133296314 L 414.2642642642643 396.3878724612247 L 414.7647647647648 385.51577944001247 L 415.26526526526527 394.6086175752565 L 415.76576576576576 391.7966289990762 L 416.2662662662663 380.5866531052963 L 416.7667667667668 372.1168913420628 L 417.2672672672673 385.3512413582334 L 417.7677677677678 359.529038964801 L 418.2682682682683 329.03007579200084 L 418.7687687687688 366.45475911961074 L 419.2692692692693 382.5392404479846 L 419.76976976976977 392.5140812952119 L 420.2702702702703 387.9116333161777 L 420.7707707707708 383.7277754574125 L 421.2712712712713 381.512180807934 L 421.7717717717718 383.4322546956092 L 422.2722722722723 398.52742325338085 L 422.7727727727728 386.45208578752334 L 423.2732732732733 385.0159103815499 L 423.7737737737738 367.0651091776983 L 424.2742742742743 361.5261384693508 L 424.7747747747748 359.53948222193293 L 425.2752752752753 397.0253514241598 L 425.7757757757758 356.9652823364683 L 426.2762762762763 354.18689537971056 L 426.7767767767768 345.84337591442375 L 427.2772772772773 329.32404061164823 L 427.7777777777778 345.4272368698771 L 428.2782782782783 369.4002625854896 L 428.7787787787788 382.69953845523366 L 429.2792792792793 364.3031099758699 L 429.7797797797798 334.6075486195679 L 430.2802802802803 352.72565041434723 L 430.7807807807808 368.0562062441389 L 431.2812812812813 351.0809616632326 L 431.78178178178183 368.2511453978872 L 432.2822822822823 392.11998172097293 L 432.7827827827828 358.8075324258223 L 433.2832832832833 340.2648468659759 L 433.7837837837838 380.20652172489594 L 434.2842842842843 377.58336005918875 L 434.7847847847848 368.9356358341451 L 435.2852852852853 392.81833972097223 L 435.78578578578583 372.2057608233333 L 436.2862862862863 394.75838218863294 L 436.7867867867868 378.61843182972757 L 437.2872872872873 371.3110960718035 L 437.7877877877878 390.54870962422376 L 438.2882882882883 378.67075401609355 L 438.7887887887888 393.52607021848854 L 439.28928928928934 372.53112425536983 L 439.78978978978984 374.0226245200026 L 440.29029029029033 357.78890239561395 L 440.7907907907908 383.7715576409738 L 441.2912912912913 392.8445194870758 L 441.7917917917918 353.3152031073128 L 442.2922922922923 341.96911049129415 L 442.7927927927928 343.8716767910147 L 443.29329329329335 374.529809364545 L 443.79379379379384 366.7635085308157 L 444.29429429429433 392.5592856226031 L 444.7947947947948 361.0113069398128 L 445.2952952952953 336.0239755217666 L 445.7957957957958 321.22499887665106 L 446.2962962962963 381.9123313665496 L 446.7967967967968 388.14772124089114 L 447.29729729729735 383.9270105640354 L 447.79779779779784 388.3691051021327 L 448.29829829829833 391.0926361698593 L 448.7987987987988 392.295218377707 L 449.2992992992993 383.8831329865483 L 449.7997997997998 392.4338063798535 L 450.3003003003003 378.75571234214686 L 450.8008008008008 381.43991715394606 L 451.30130130130135 364.92915913298015 L 451.80180180180184 385.6603173771575 L 452.30230230230234 389.90563564377044 L 452.80280280280283 385.51066139261656 L 453.3033033033033 369.3702130516983 L 453.8038038038038 349.8414892625626 L 454.3043043043043 374.4591745161903 L 454.80480480480486 368.94287458943353 L 455.30530530530535 372.6730816296846 L 455.80580580580585 382.0104704423517 L 456.30630630630634 332.12369498099895 L 456.80680680680683 335.28034915458755 L 457.3073073073073 361.0656415008695 L 457.8078078078078 365.4941893865235 L 458.3083083083083 386.9312391278988 L 458.80880880880886 391.85672303507266 L 459.30930930930936 355.69277311846844 L 459.80980980980985 392.41629526410406 L 460.31031031031034 396.0734151531068 L 460.81081081081084 374.7171263233942 L 461.31131131131133 390.95671906493754 L 461.8118118118118 385.9460876460768 L 462.3123123123123 398.56394244241164 L 462.81281281281287 400 L 463.31331331331336 399.40224990003907 L 463.81381381381385 370.7816276007231 L 464.31431431431434 357.2901257883526 L 464.81481481481484 330.4261505502252 L 465.31531531531533 332.0678752567519 L 465.8158158158158 355.0662755518066 L 466.3163163163163 333.47844820424126 L 466.81681681681687 355.53254005707447 L 467.31731731731736 374.4810669792498 L 467.81781781781785 377.6082771404703 L 468.31831831831835 359.19250861062096 L 468.81881881881884 385.64856216239855 L 469.31931931931933 383.4754659180058 L 469.8198198198198 383.5737447640523 L 470.3203203203203 386.0251690677938 L 470.82082082082087 371.514670147453 L 471.32132132132136 377.41085210300963 L 471.82182182182186 363.6921787136043 L 472.32232232232235 391.4987060086317 L 472.82282282282284 393.64247186418015 L 473.32332332332334 370.98679620871724 L 473.82382382382383 374.15304830175677 L 474.3243243243244 353.33652913963425 L 474.8248248248249 343.6221865137744 L 475.32532532532537 353.5690025449303 L 475.82582582582586 378.74316118008255 L 476.32632632632635 399.61071463257497 L 476.82682682682685 371.44054826901146 L 477.32732732732734 399.61509860556384 L 477.82782782782783 389.5086722121338 L 478.3283283283284 376.7969374166097 L 478.8288288288289 364.67981617520843 L 479.32932932932937 378.9993482541998 L 479.82982982982986 367.9252209644539 L 480.33033033033036 343.7242224369715 L 480.83083083083085 357.9377465447472 L 481.33133133133134 351.70472042087107 L 481.83183183183183 379.24708886144305 L 482.3323323323324 360.5893335599768 L 482.8328328328329 385.82523954771574 L 483.33333333333337 356.6115139437223 L 483.83383383383386 344.244821065609 L 484.33433433433436 360.2891163183763 L 484.83483483483485 393.9478169757392 L 485.33533533533534 394.6319096629768 L 485.83583583583584 372.3307761746235 L 486.3363363363364 383.72717796994397 L 486.8368368368369 396.6745102321588 L 487.3373373373374 397.56207183231896 L 487.83783783783787 376.5197281247415 L 488.33833833833836 385.40246686331477 L 488.83883883883885 398.38990374418063 L 489.33933933933935 376.066512567976 L 489.8398398398399 384.6824166658514 L 490.3403403403404 386.66986649517895 L 490.8408408408409 371.0705973456918 L 491.3413413413414 367.1019408497387 L 491.84184184184187 383.0598740870985 L 492.34234234234236 387.5151602993726 L 492.84284284284286 356.44738844984795 L 493.34334334334335 361.3368915281179 L 493.8438438438439 382.5902498000479 L 494.3443443443444 336.5058545206655 L 494.8448448448449 368.28105684367966 L 495.3453453453454 347.84950738498003 L 495.8458458458459 380.0510870628098 L 496.34634634634637 360.16053890577354 L 496.84684684684686 385.1248467005125 L 497.34734734734735 390.018967357613 L 497.8478478478479 380.8153572065429 L 498.3483483483484 384.61876659547113 L 498.8488488488489 396.3903744147777 L 499.3493493493494 391.0870157037964 L 499.8498498498499 363.5536742130149 L 500.35035035035037 392.53212428273844 L 500.85085085085086 395.6572544618482 L 501.35135135135135 377.9981159747037 L 501.8518518518519 385.66314958277087 L 502.3523523523524 383.66765240642525 L 502.8528528528529 365.27553625758117 L 503.3533533533534 385.5032249051364 L 503.8538538538539 388.59832767226504 L 504.35435435435437 370.5042527747814 L 504.85485485485486 378.6726750948619 L 505.3553553553554 393.19677108266916 L 505.8558558558559 386.11722536392165 L 506.3563563563564 381.7874246872597 L 506.8568568568569 396.7636012587977 L 507.3573573573574 347.61237047687086 L 507.8578578578579 320.45427966367293 L 508.3583583583584 316.15757030172074 L 508.85885885885887 357.8667738027541 L 509.3593593593594 366.0060355181879 L 509.8598598598599 374.49646919376727 L 510.3603603603604 384.04817663978946 L 510.8608608608609 371.7602286823584 L 511.3613613613614 348.23877291265757 L 511.8618618618619 357.6282436586369 L 512.3623623623623 395.717442176265 L 512.8628628628628 375.82460398417055 L 513.3633633633634 362.6973877545077 L 513.8638638638639 357.75119246558967 L 514.3643643643644 373.00359770996084 L 514.8648648648649 394.97607978533307 L 515.3653653653654 388.58072318033277 L 515.8658658658659 377.6434572340228 L 516.3663663663664 358.62350212199635 L 516.8668668668669 371.7768124541625 L 517.3673673673675 387.96949048627397 L 517.867867867868 378.2112099036877 L 518.3683683683685 369.3036858480434 L 518.868868868869 378.0958995240842 L 519.3693693693695 375.4553240162637 L 519.86986986987 390.34615468083234 L 520.3703703703704 385.48077093993345 L 520.8708708708709 376.7166599263814 L 521.3713713713714 389.50715015594596 L 521.8718718718719 388.15429949171545 L 522.3723723723724 372.02763541562285 L 522.8728728728729 369.32692333929714 L 523.3733733733734 381.10370930249877 L 523.8738738738739 364.4562958670723 L 524.3743743743744 394.8125567260793 L 524.8748748748749 383.6810091130008 L 525.3753753753754 371.98446099236304 L 525.8758758758759 383.330418717536 L 526.3763763763764 366.4851572415639 L 526.8768768768768 320.8889753047355 L 527.3773773773773 312.74426050793073 L 527.8778778778778 318.01898097849653 L 528.3783783783783 351.5734522394626 L 528.8788788788789 385.6444691526646 L 529.3793793793794 383.11900351539634 L 529.8798798798799 329.0729408292083 L 530.3803803803804 301.0287116523041 L 530.8808808808809 328.6461121496472 L 531.3813813813814 360.8343967682002 L 531.8818818818819 388.28030356377434 L 532.3823823823824 399.5294059441842 L 532.882882882883 376.3798775015991 L 533.3833833833835 367.81598589929774 L 533.883883883884 349.9187276118061 L 534.3843843843845 336.16486598497306 L 534.884884884885 333.8043421005766 L 535.3853853853855 317.9007315198068 L 535.885885885886 338.26865161577706 L 536.3863863863864 362.3579363211859 L 536.8868868868869 369.2321123195368 L 537.3873873873874 393.4035429858076 L 537.8878878878879 390.82236644910154 L 538.3883883883884 372.91364651614447 L 538.8888888888889 395.0371569651601 L 539.3893893893894 389.8900449349716 L 539.8898898898899 356.04804669775245 L 540.3903903903904 333.5079479145767 L 540.8908908908909 380.9809175005178 L 541.3913913913914 345.04175244043336 L 541.8918918918919 341.0649994249501 L 542.3923923923924 353.49918849902866 L 542.8928928928929 339.15298035064586 L 543.3933933933934 332.24345413194766 L 543.8938938938938 385.9492741623515 L 544.3943943943945 399.7070843551564 L 544.894894894895 346.29928738336326 L 545.3953953953954 370.90613649490814 L 545.8958958958959 360.0355041150276 L 546.3963963963964 391.36897934730337 L 546.8968968968969 377.02897118830595 L 547.3973973973974 369.17645846934045 L 547.8978978978979 361.25834590674197 L 548.3983983983985 325.4395954901894 L 548.898898898899 292.3168863915468 L 549.3993993993995 279.67062001663135 L 549.8998998999 321.15262042428515 L 550.4004004004005 322.28140132225127 L 550.900900900901 345.05121416303524 L 551.4014014014015 365.6128618119648 L 551.901901901902 366.1386010769563 L 552.4024024024025 360.0786740519684 L 552.902902902903 337.92678301460523 L 553.4034034034034 366.164281844498 L 553.9039039039039 365.6423423333722 L 554.4044044044044 375.26631940609343 L 554.9049049049049 328.8641510741804 L 555.4054054054054 333.46120127232496 L 555.9059059059059 377.5162490446086 L 556.4064064064064 371.0617481968468 L 556.9069069069069 345.6588512506387 L 557.4074074074074 342.28627802507344 L 557.9079079079079 340.4958692099853 L 558.4084084084084 322.8412140830731 L 558.9089089089089 333.5494937355633 L 559.4094094094094 329.02685123384344 L 559.90990990991 328.0537254484174 L 560.4104104104105 390.864551692067 L 560.910910910911 376.2100348308327 L 561.4114114114114 378.1769704537362 L 561.911911911912 381.25088451263747 L 562.4124124124124 356.89589591406667 L 562.9129129129129 317.820500931162 L 563.4134134134134 313.4668480535041 L 563.913913913914 378.19084497116813 L 564.4144144144145 389.0713173890336 L 564.914914914915 388.4681300253789 L 565.4154154154155 377.27459497404675 L 565.915915915916 367.5669115298593 L 566.4164164164165 383.6503051502833 L 566.916916916917 389.7769866388281 L 567.4174174174175 389.56883025804854 L 567.917917917918 369.5531059444204 L 568.4184184184185 376.9432428554427 L 568.918918918919 358.260418178603 L 569.4194194194195 359.5710824902797 L 569.91991991992 372.0610781747362 L 570.4204204204204 390.02518454409244 L 570.9209209209209 355.93508264240927 L 571.4214214214214 389.7576205522571 L 571.9219219219219 348.24857812874933 L 572.4224224224224 378.47384050908283 L 572.9229229229229 380.74800132934706 L 573.4234234234234 384.7067304356315 L 573.9239239239239 385.5844783500288 L 574.4244244244244 394.3063651419087 L 574.9249249249249 395.4375343233097 L 575.4254254254255 389.6772950279949 L 575.925925925926 307.4170640686169 L 576.4264264264265 327.6610935054678 L 576.926926926927 342.65153279289586 L 577.4274274274275 380.0248736630552 L 577.927927927928 384.8205271391074 L 578.4284284284284 392.64863534726237 L 578.9289289289289 361.4084610687192 L 579.4294294294295 383.8850705914242 L 579.92992992993 366.7270294337278 L 580.4304304304305 365.42034439905217 L 580.930930930931 337.0397948390152 L 581.4314314314315 377.5560838914826 L 581.931931931932 393.0707532048195 L 582.4324324324325 366.2006411914602 L 582.932932932933 395.32859548390235 L 583.4334334334335 393.4046733619019 L 583.933933933934 395.7452854995057 L 584.4344344344345 356.5338394807291 L 584.934934934935 364.2761898094 L 585.4354354354355 352.47657387662497 L 585.935935935936 350.7173863926916 L 586.4364364364365 316.8558998850778 L 586.936936936937 355.8744296024564 L 587.4374374374374 372.9328349579636 L 587.9379379379379 378.0547138071285 L 588.4384384384384 375.12029620901365 L 588.9389389389389 316.78818517900385 L 589.4394394394394 396.54512839753045 L 589.9399399399399 349.41466292613495 L 590.4404404404404 360.6052504809618 L 590.940940940941 337.4353584233623 L 591.4414414414415 343.97413134225525 L 591.941941941942 372.6528620217525 L 592.4424424424425 386.92952818294833 L 592.942942942943 378.21952009357875 L 593.4434434434435 351.93700150681457 L 593.943943943944 387.6542238514391 L 594.4444444444445 387.1719979700029 L 594.9449449449451 385.3917736034288 L 595.4454454454456 312.85597356821995 L 595.945945945946 329.0272969448687 L 596.4464464464465 356.2405112810038 L 596.946946946947 316.3375110780636 L 597.4474474474475 324.4850784068822 L 597.947947947948 340.6781517231993 L 598.4484484484485 379.5251572266234 L 598.948948948949 384.7215424053534 L 599.4494494494495 317.364146753876 L 599.94994994995 331.5041046254804 L 600.4504504504505 350.97171363856864 L 600.950950950951 375.4461844743488 L 601.4514514514515 386.92938235743947 L 601.951951951952 385.66443075306245 L 602.4524524524525 386.6313720237194 L 602.952952952953 392.8759962320494 L 603.4534534534534 384.9906162240866 L 603.9539539539539 350.0948287182099 L 604.4544544544544 387.1782561489874 L 604.9549549549549 361.2767925256607 L 605.4554554554554 379.8678621101577 L 605.9559559559559 384.3023663419702 L 606.4564564564565 386.2832447000265 L 606.956956956957 355.29407586046034 L 607.4574574574575 373.9102656797201 L 607.957957957958 325.1078159874529 L 608.4584584584585 370.9995511909048 L 608.958958958959 357.9052792956508 L 609.4594594594595 343.2277254243175 L 609.95995995996 387.90280403210437 L 610.4604604604606 397.43475373019913 L 610.9609609609611 392.92643982029614 L 611.4614614614616 382.89732582741937 L 611.9619619619621 360.44103798142174 L 612.4624624624626 394.57995743176843 L 612.962962962963 360.37945005329 L 613.4634634634635 332.65219846847526 L 613.963963963964 384.748564692246 L 614.4644644644645 367.4423926957157 L 614.964964964965 375.88548703381736 L 615.4654654654655 345.86024328460496 L 615.965965965966 394.3830873391779 L 616.4664664664665 348.3440572943597 L 616.966966966967 339.02963418825095 L 617.4674674674675 398.7908798225314 L 617.967967967968 387.738899407699 L 618.4684684684685 371.9176136672248 L 618.968968968969 384.25531376565385 L 619.4694694694695 390.7639608596437 L 619.96996996997 391.3538075465961 L 620.4704704704704 388.27936954898274 L 620.9709709709709 373.65559650448193 L 621.4714714714714 383.75847509642523 L 621.971971971972 390.9682154478407 L 622.4724724724725 391.1593280372815 L 622.972972972973 389.4254712030214 L 623.4734734734735 394.6847684153914 L 623.973973973974 369.54996990989514 L 624.4744744744745 382.135519623986 L 624.974974974975 354.5775303286184 L 625.4754754754755 330.9261589147352 L 625.9759759759761 370.70192380760295 L 626.4764764764766 392.13686720609 L 626.9769769769771 392.73413236987193 L 627.4774774774776 381.3857244480681 L 627.9779779779781 399.27674702558517 L 628.4784784784786 384.7621639954625 L 628.9789789789791 389.1135967627489 L 629.4794794794796 384.66801219707344 L 629.97997997998 377.88113687388704 L 630.4804804804805 383.9584296930094 L 630.980980980981 381.12999187878637 L 631.4814814814815 399.006208328189 L 631.981981981982 390.44949613433255 L 632.4824824824825 388.78743785892436 L 632.982982982983 391.49001611724066 L 633.4834834834835 387.6095695201453 L 633.983983983984 380.39019496449095 L 634.4844844844845 388.7004757722194 L 634.984984984985 377.97577543246695 L 635.4854854854855 390.4976699101066 L 635.985985985986 387.1445294131731 L 636.4864864864865 389.95730550760203 L 636.986986986987 374.9008149309576 L 637.4874874874876 376.13104320687626 L 637.987987987988 378.9166123780237 L 638.4884884884885 391.1260590898089 L 638.988988988989 394.0931060149757 L 639.4894894894895 392.6926307330135 L 639.98998998999 383.9398210022474 L 640.4904904904905 398.7516201406602 L 640.990990990991 390.9321256332203 L 641.4914914914916 397.9612253828644 L 641.9919919919921 385.4777348648641 L 642.4924924924926 392.6341511973356 L 642.9929929929931 393.14610957447 L 643.4934934934936 388.4135203094961 L 643.9939939939941 393.421048294768 L 644.4944944944946 391.23488166919776 L 644.9949949949951 396.8781601103406 L 645.4954954954956 381.4157306778213 L 645.995995995996 397.3241164873111 L 646.4964964964965 388.00087161063476 L 646.996996996997 399.18916937734434 L 647.4974974974975 398.10304937696395 L 647.997997997998 386.5038975478232 L 648.4984984984985 399.1167852234437 L 648.998998998999 394.1930307323184 L 649.4994994994995 389.62872128979654 L 650 399.5264295284573" /><text  class="poloto_labels poloto_text poloto_title" alignment-baseline="start" text-anchor="middle" font-size="x-large" x="400" y="37.5" >Relative Error</text><text  class="poloto_labels poloto_text poloto_xname" alignment-baseline="start" text-anchor="middle" font-size="x-large" x="400" y="481.25" >step</text><text  class="poloto_labels poloto_text poloto_yname" alignment-baseline="start" text-anchor="middle" font-size="x-large" transform="rotate(-90,37.5,250)" x="37.5" y="250" >error (%)</text><line  class="poloto_axis_lines" stroke="black" x1="150" x2="150" y1="400" y2="405" /><text  class="poloto_tick_labels poloto_text" alignment-baseline="start" text-anchor="middle" x="150" y="430" > 0</text><line  class="poloto_axis_lines" stroke="black" x1="250.10010010010012" x2="250.10010010010012" y1="400" y2="405" /><text  class="poloto_tick_labels poloto_text" alignment-baseline="start" text-anchor="middle" x="250.10010010010012" y="430" > 200</text><line  class="poloto_axis_lines" stroke="black" x1="350.20020020020024" x2="350.20020020020024" y1="400" y2="405" /><text  class="poloto_tick_labels poloto_text" alignment-baseline="start" text-anchor="middle" x="350.20020020020024" y="430" > 400</text><line  class="poloto_axis_lines" stroke="black" x1="450.3003003003003" x2="450.3003003003003" y1="400" y2="405" /><text  class="poloto_tick_labels poloto_text" alignment-baseline="start" text-anchor="middle" x="450.3003003003003" y="430" > 600</text><line  class="poloto_axis_lines" stroke="black" x1="550.4004004004005" x2="550.4004004004005" y1="400" y2="405" /><text  class="poloto_tick_labels poloto_text" alignment-baseline="start" text-anchor="middle" x="550.4004004004005" y="430" > 800</text><line  class="poloto_axis_lines" stroke="black" x1="150" x2="144" y1="331.8623240609469" y2="331.8623240609469" /><text  class="poloto_tick_labels poloto_text" alignment-baseline="middle" text-anchor="end" x="135" y="331.8623240609469" > 0.1</text><line  class="poloto_axis_lines" stroke="black" x1="150" x2="144" y1="262.974089727969" y2="262.974089727969" /><text  class="poloto_tick_labels poloto_text" alignment-baseline="middle" text-anchor="end" x="135" y="262.974089727969" > 0.2</text><line  class="poloto_axis_lines" stroke="black" x1="150" x2="144" y1="194.08585539499109" y2="194.08585539499109" /><text  class="poloto_tick_labels poloto_text" alignment-baseline="middle" text-anchor="end" x="135" y="194.08585539499109" > 0.3</text><line  class="poloto_axis_lines" stroke="black" x1="150" x2="144" y1="125.19762106201318" y2="125.19762106201318" /><text  class="poloto_tick_labels poloto_text" alignment-baseline="middle" text-anchor="end" x="135" y="125.19762106201318" > 0.4</text><path  stroke="black" fill="none" class="poloto_axis_lines" style="stroke-dasharray:12.512512512512513;stroke-dashoffset:-0;" d=" M 150 400 L 650 400" /><path  stroke="black" fill="none" class="poloto_axis_lines" style="stroke-dasharray:8.611029291622238;stroke-dashoffset:-68.13767593905311;" d=" M 150 400 L 150 100" /></svg>