<svg class="poloto" width="800" height="500" viewBox="0 0 800 500" xmlns="http://www.w3.org/2000/svg"><style>.poloto { stroke-linecap:round; stroke-linejoin:round; font-family: 'Tahoma', sans-serif; background-color: #262626;} .poloto_scatter{stroke-width:7} .poloto_line{stroke-width:2} .poloto_text{fill: white;} .poloto_axis_lines{stroke: white;stroke-width:3;fill:none;stroke-dasharray:none} .poloto0stroke{stroke:  blue;} .poloto1stroke{stroke:  red;} .poloto2stroke{stroke:  green;} .poloto3stroke{stroke:  gold;} .poloto4stroke{stroke:  aqua;} .poloto5stroke{stroke:  lime;} .poloto6stroke{stroke:  orange;} .poloto7stroke{stroke:  chocolate;} .poloto0fill{fill:blue;} .poloto1fill{fill:red;} .poloto2fill{fill:green;} .poloto3fill{fill:gold;} .poloto4fill{fill:aqua;} .poloto5fill{fill:lime;} .poloto6fill{fill:orange;} .poloto7fill{fill:chocolate;}</style><text  class="poloto_text poloto_legend_text" alignment-baseline="middle" text-anchor="start" font-size="large" x="675" y="100" >Real</text><line  class="poloto_line poloto_legend_icon poloto0stroke poloto0legend" stroke="black" x1="680" x2="730" y1="81.25" y2="81.25" /><path  class="poloto_line poloto0stroke" fill="none" stroke="black" d=" M 650 249.99999994416217 L 649.726410312333 242.9843566188275 L 648.9212238875441 236.08019529894503 L 647.6276041938313 229.38433742106776 L 645.9072719055531 222.96924497292133 L 643.8298843949617 216.8802670387554 L 641.4641979531534 211.13849619152333 L 638.8724866161765 205.74642581792514 L 636.1080220596143 200.6939821630606 L 633.2146778237648 195.96360203601049 L 630.2276993078433 191.53395744694538 L 627.174948504311 187.38243250353491 L 624.0782425854984 183.4866648505062 L 620.9545417335933 179.82537457984733 L 617.8169913705756 176.37881414987055 L 614.6757498787176 173.12892194247036 L 611.5386491388714 170.05932775200648 L 608.4117112772311 167.15527336758853 L 605.299549987006 164.4034914934717 L 602.205681219956 161.7920686788537 L 599.1327635936485 159.31030689755164 L 596.0827846427983 156.94859165586075 L 593.0572054516152 154.69827045320022 L 590.0570733062584 152.55154305196766 L 587.0831097370892 150.50136367763213 L 584.135779573171 148.54135455825792 L 581.2153452989668 146.66572987092232 L 578.3219099918224 144.8692290354617 L 575.4554513525343 143.14705828927896 L 572.6158487604931 141.49483953390535 L 569.802904843938 139.90856553112462 L 567.0163627201638 138.38456062436273 L 564.255919804154 136.91944625891443 L 561.5212388875716 135.51011066673885 L 558.8119570387887 134.1536821653698 L 556.1276927577488 132.84750559505636 L 553.4680517287447 131.58912148365118 L 550.8326314435141 130.37624758558871 L 548.2210249117435 129.20676249034943 L 545.6328236326084 128.07869103798345 L 543.0676199666977 126.99019131543628 L 540.5250052257535 125.93954149097044 L 538.0045872441012 124.9251360018551 L 535.5059658422064 123.9454656365964 L 533.02875210983 122.99911677205347 L 530.5725641072905 122.08476173473639 L 528.1370273783772 121.20115198825891 L 525.7217753191967 120.34711197505527 L 523.3264494297157 119.52153353962359 L 520.9506994699539 118.72337086962159 L 518.594183538856 117.95163589896708 L 516.2565680906858 117.20539412387137 L 513.9375279011542 116.48376078860849 L 511.63674599335246 115.78589740292045 L 509.3539135317979 115.11100855739869 L 507.0887296914383 114.45833900704673 L 504.8409015072668 113.8271709966042 L 502.61014370920566 113.21682180416673 L 500.3961785460935 112.62664148222052 L 498.1987356019327 112.05601077748133 L 496.01755160698775 111.50433921292415 L 493.8523702458551 110.97106331714662 L 491.702941964235 110.45564498776065 L 489.56902377581224 109.95756997687681 L 487.45037907038204 109.47634648795884 L 485.34677742413055 109.01150387440202 L 483.25799441279594 108.5625914311425 L 481.1838114282779 108.12917727145509 L 479.1240154991335 107.7108472818532 L 477.0783991152931 107.30720414867955 L 475.0467600572374 106.91786645057829 L 473.0289012298052 106.54246781157997 L 471.02463050074084 106.18065611001236 L 469.0337605440383 105.83209273888542 L 467.0561086881012 105.49645191378613 L 465.09149676870163 105.1734200246708 L 463.1397509866949 104.86269502825792 L 461.2007017704275 104.56398587800754 L 459.2741836427545 104.27701198893311 L 457.36003509257307 104.00150273472002 L 455.45809845076593 103.73719697484 L 453.5682197704421 103.48384260953736 L 451.6902487113561 103.24119616073722 L 449.82403842838346 103.00902237708374 L 447.969445463927 102.78709386145852 L 446.12632964413007 102.57519071945774 L 444.29455397876876 102.37310022742923 L 442.473984564699 102.18061651877281 L 440.6644904927359 101.99754028731166 L 438.86594375784114 101.82367850662905 L 437.07821917250243 101.65884416434756 L 435.30119428318505 101.50285601040537 L 433.53474928974447 101.35553831845124 L 431.77876696768794 101.21672065954476 L 430.0331325931788 101.08623768740574 L 428.29773387067814 100.96392893451139 L 426.57246086312546 100.84963861838776 L 424.8572059245588 100.74321545748882 L 423.15186363508263 100.64451249609704 L 421.45633073809137 100.55338693771932 L 419.7705060796633 100.46969998648547 L 418.0942905500393 100.39331669609271 L 416.4275870271075 100.32410582586635 L 414.77030032181455 100.26193970353734 L 413.12233712543105 100.20669409436317 L 411.4836059585982 100.1582480762408 L 409.854017122087 100.11648392048596 L 408.2334826492056 100.08128697797042 L 406.6219162597896 100.05254557033021 L 405.0192333157162 100.03015088597544 L 403.4253507778826 100.01399688064805 L 401.8401871645947 100.00398018229026 L 400.26366251131066 100 L 398.69569833168885 100.00195803686404 L 397.1362175798914 100.00975840647129 L 395.5851446140957 100.02330755291973 L 394.0424051611677 100.04251417414383 L 392.50792628245586 100.06728914839607 L 390.981636340662 100.09754546372818 L 389.46346496775044 100.13319815032537 L 387.9533430338563 100.17416421555606 L 386.45120261715715 100.22036258160597 L 384.95697477982117 100.27171410495913 L 383.47059855848613 100.32814119965803 L 381.99200702350186 100.38956826259908 L 380.5211368048258 100.45592129926263 L 379.0579256027678 100.52712795278308 L 377.6023121629829 100.60311745473439 L 376.15423625220467 100.68382057776773 L 374.7136386346945 100.76916959001665 L 373.28046104937977 100.85909821119196 L 371.8546461876601 100.95354157029038 L 370.43613767185525 101.0524361648462 L 369.0248800342757 101.15571982165886 L 367.6208186968919 101.26333165893209 L 366.2238999515835 101.37521204976383 L 364.8340709409488 101.49130258692924 L 363.45127963965433 101.61154604890203 L 362.07547483630793 101.73588636706165 L 360.7066061158364 101.86426859403713 L 359.3446238423522 101.99663887313994 L 357.98947914249175 102.13294440884124 L 356.64112388921114 102.2731334382504 L 355.299510686023 102.4171552035545 L 353.96459285166037 102.56495992537992 L 352.63632440515516 102.7164987770384 L 351.31466005131523 102.87172385962299 L 349.99955516658923 103.03058817792055 L 348.69096578530645 103.19304561710709 L 347.38884858627904 103.35905092019789 L 346.0931608797555 103.5285596662203 L 344.803860594715 103.70152824908399 L 343.5209062664904 103.87791385711995 L 342.24425702471126 104.05767445326399 L 340.9738725815556 104.24076875585968 L 339.70971322030215 104.42715622005807 L 338.45173978417233 104.6167970197917 L 337.19991366545423 104.80965203030098 L 335.95419679490004 105.00568281119388 L 334.7145516313876 105.20485159001817 L 333.4809411518396 105.40712124632802 L 332.25332884139084 105.61245529622795 L 331.03167868379774 105.82081787737502 L 329.8159551520829 106.03217373442476 L 328.60612319940645 106.24648820490438 L 327.40214825015795 106.46372720549789 L 326.20399619126385 106.68385721872892 L 325.01163336370206 106.90684528002805 L 323.8250265542196 107.13265896516981 L 322.64414298724546 107.36126637806831 L 321.4689503169949 107.5926361389179 L 320.29941661975903 107.82673737266794 L 319.13551038637365 108.06353969781992 L 317.97720051486357 108.30301321553645 L 316.82445630325685 108.54512849905097 L 315.6772474425641 108.78985658336921 L 314.5355440099182 109.03716895525201 L 313.3993164618703 109.28703754347066 L 312.2685356278379 109.53943470932506 L 311.1431727037001 109.79433323741716 L 310.02319924553694 110.05170632667148 L 308.9085871635082 110.31152758159305 L 307.79930871586805 110.57377100375771 L 306.6953365031121 110.83841098352502 L 305.59664346225355 111.10542229196858 L 304.5032028612235 111.3747800730157 L 303.4149882933947 111.64645983579044 L 302.33197367222283 111.9204374471534 L 301.2541332260041 112.19668912443257 L 300.18144149274497 112.47519142833903 L 299.11387331514186 112.7559212560617 L 298.05140383566743 113.0388558345361 L 296.99400849176106 113.32397271388163 L 295.9416630111207 113.61124976100234 L 294.894343407093 113.90066515334593 L 293.8520259741608 114.19219737281674 L 292.81468728352297 114.48582519983859 L 291.78230417876705 114.78152770756105 L 290.75485377163 115.07928425620798 L 289.7323134378468 115.37907448756096 L 288.7146608130828 115.68087831957627 L 287.70187378894946 115.98467594113026 L 286.6939305091004 116.2904478068894 L 285.6908093654064 116.59817463230195 L 284.6924889942063 116.90783738870743 L 283.6989482726337 117.21941729856081 L 282.7101663150161 117.53289583076776 L 281.7261224693455 117.84825469612827 L 280.7467963138185 118.16547584288537 L 279.77216765344417 118.48454145237594 L 278.8022165167183 118.80543393478149 L 277.83692315236243 119.12813592497457 L 276.87626802612584 119.45263027846045 L 275.92023181764915 119.77890006740893 L 274.96879541738895 120.10692857677611 L 274.0219399235996 120.43669930051237 L 273.0796466393744 120.7681959378541 L 272.1418970697416 121.10140238969848 L 271.2086729188157 121.43630275505654 L 270.27995608700223 121.77288132758525 L 269.355728668255 122.11112259219442 L 268.43597294738436 122.45101122172719 L 267.520671397416 122.79253207371261 L 266.60980667699744 123.13567018718771 L 265.70336162785395 123.48041077958754 L 264.80131927228933 123.82673924370181 L 263.9036628107342 124.17464114469516 L 263.01037561933776 124.52410221719151 L 262.12144124760357 124.87510836241876 L 261.2368434160678 125.22764564541342 L 260.35656601401985 125.5817002922837 L 259.48059309726375 125.93725868752887 L 258.6089088859184 126.29430737141445 L 257.7414977622588 126.65283303740063 L 256.87834426859376 127.0128225296242 L 256.0194331051826 127.37426284043084 L 255.1647491281872 127.73714110795794 L 254.31427734766086 128.10144461376603 L 253.46800292557165 128.46716078051793 L 252.62591117386077 128.8342771697043 L 251.7879875525338 129.20278147941417 L 250.9542176677856 129.57266154215029 L 250.12458727015667 129.94390532268704 L 249.29908225272243 130.3165009159709 L 248.47768864931146 130.6904365450617 L 247.66039263275627 131.06570055911402 L 246.8471805131718 131.44228143139821 L 246.03803873626387 131.8201677573593 L 245.23295388166676 132.1993482527127 L 244.43191266130702 132.5798117515779 L 243.63490191779607 132.96154720464637 L 242.8419086228492 133.34454367738476 L 242.05291987573005 133.72879034827253 L 241.26792290172216 134.1142765070719 L 240.4869050506243 134.5009915531313 L 239.7098537952717 134.88892499371968 L 238.93675673008076 135.27806644239223 L 238.16760156961797 135.66840561738627 L 237.40237614719132 136.05993234004706 L 236.64106841346566 136.45263653328192 L 235.88366643509966 136.84650822004323 L 235.13015839340468 137.24153752183878 L 234.38053258302568 137.63771465726956 L 233.63477741064273 138.03502994059318 L 232.89288139369356 138.43347378031416 L 232.15483315911612 138.83303667779882 L 231.42062144211133 139.23370922591516 L 230.69023508492532 139.63548210769682 L 229.96366303565037 140.03834609503127 L 229.24089434704558 140.4422920473699 L 228.5219181753752 140.8473109104624 L 227.80672377926533 141.2533937151117 L 227.09530051857845 141.6605315759523 L 226.38763785330553 142.06871569024798 L 225.68372534247473 142.47793733671205 L 224.98355264307745 142.8881878743466 L 224.2871095090109 143.2994587413025 L 223.5943857900363 143.7117414537584 L 222.90537143075375 144.1250276048192 L 222.2200564695919 144.53930886343275 L 221.53843103781355 144.95457697332552 L 220.86048535853627 145.37082375195524 L 220.1862097457674 145.78804108948214 L 219.5155946034541 146.2062209477564 L 218.848630424547 146.6253553593233 L 218.1853077900788 147.04543642644404 L 217.5256163645255 147.46645696319985 L 216.86954898717522 147.88840787732266 L 216.21709541115345 148.31128216549223 L 215.56824656127012 148.73507219918162 L 214.92299344598246 149.15977041493224 L 214.28132715655366 149.58536931346674 L 213.64323886622404 150.0118614588159 L 213.00871982939404 150.43923947745986 L 212.37776138081938 150.86749605748287 L 211.75035493481755 151.2966239477418 L 211.12649198448628 151.7266159570474 L 210.5061641009326 152.15746495335884 L 209.88936293251362 152.58916386299114 L 209.27608020408806 153.02170566983432 L 208.66630771627823 153.45508341458552 L 208.06003734474268 153.88929019399274 L 207.45726103945975 154.32431916011015 L 206.85797082402033 154.76016351956534 L 206.2621587949318 155.19681653283726 L 205.66981712093082 155.6342715135459 L 205.08093804230646 156.07252182775227 L 204.4955138702329 156.51156089326915 L 203.91353698611115 156.9513821789825 L 203.33499984092023 157.391979204183 L 202.75989495457782 157.83334553790726 L 202.18821491530898 158.27547479828968 L 201.61995237902477 158.71836065192304 L 201.0551000687086 159.16199681322948 L 200.493650773812 159.60637704383993 L 199.93559734965777 160.0514951519834 L 199.3809327168525 160.49734499188486 L 198.82964986070647 160.94392046317182 L 198.2817418306617 161.39121551029 L 197.7372017397283 161.83922412192683 L 197.1960227639281 162.28794033044397 L 196.65819814174623 162.73735821131731 L 196.12372117359007 163.18747188258544 L 195.59258522125555 163.63827550430614 L 195.06478370740126 164.08976327801966 L 194.54031011502906 164.54192944622093 L 194.01915798697235 164.99476829183797 L 193.50132092539067 165.44827413771853 L 192.98679259127204 165.90244134612328 L 192.47556670394133 166.35726431822644 L 191.96763704057554 166.8127374936231 L 191.46299743572578 167.26885534984362 L 190.9616417808458 167.72561240187406 L 190.46356402382608 168.18300320168427 L 189.96875816853552 168.6410223377612 L 189.4772182743684 169.09966443464916 L 188.98893845579735 169.55892415249673 L 188.5039128819332 170.01879618660854 L 188.02213577608964 170.47927526700448 L 187.54360141535486 170.94035615798344 L 187.0683041301676 171.40203365769403 L 186.59623830390044 171.86430259771015 L 186.12739837244726 172.3271578426124 L 185.661778823817 172.79059428957532 L 185.19937419773282 173.25460686795932 L 184.74017908523606 173.71919053890866 L 184.2841881282963 174.18434029495398 L 183.83139601942605 174.65005115962026 L 183.3817975013004 175.11631818704012 L 182.93538736638246 175.5831364615714 L 182.49216045655317 176.05050109741998 L 182.05211166274626 176.5184072382674 L 181.61523592458815 176.9868500569028 L 181.181528230042 177.45582475486043 L 180.75098361505786 177.92532656206012 L 180.32359716322583 178.3953507364538 L 179.89936400543507 178.86589256367517 L 179.4782793195367 179.33694735669457 L 179.06033833001115 179.80851045547763 L 178.64553630764058 180.2805772266479 L 178.23386856918464 180.75314306315408 L 177.82533047706153 181.22620338394086 L 177.41991743903262 181.69975363362386 L 177.01762490789122 182.17378928216866 L 176.61844838115633 182.64830582457301 L 176.2223834007693 183.12329878055345 L 175.8294255527953 183.59876369423563 L 175.43957046712856 184.07469613384748 L 175.05281381720147 184.55109169141673 L 174.66915131969736 185.02794598247198 L 174.2885787342678 185.50525464574633 L 173.91109186325258 185.9830133428855 L 173.53668655140456 186.4612177581586 L 173.16535868561732 186.93986359817214 L 172.7971041946569 187.41894659158785 L 172.43191904889696 187.8984624888431 L 172.06979926005766 188.37840706187464 L 171.7107408809477 188.85877610384537 L 171.35474000521012 189.33956542887427 L 171.00179276707144 189.82077087176918 L 170.6518953410941 190.3023882877622 L 170.30504394193224 190.7844135522489 L 169.96123482409104 191.26684256052883 L 169.62046428168867 191.74967122755038 L 169.28272864822233 192.23289548765734 L 168.9480242963366 192.71651129433855 L 168.6163476375956 193.20051461997997 L 168.28769512225796 193.6849014556195 L 167.9620632390546 194.16966781070462 L 167.63944851497033 194.65480971285172 L 167.31984751502742 195.1403232076088 L 167.003256842073 195.62620435821998 L 166.689673136569 196.1124492453926 L 166.3790930763849 196.59905396706705 L 166.07151337659351 197.08601463818783 L 165.76693078926962 197.5733273904784 L 165.46534210329145 198.06098837221657 L 165.16674414414453 198.5489937480138 L 164.87113377372887 199.03733969859522 L 164.57850789016842 199.52602242058234 L 164.28886342762345 200.01503812627826 L 164.00219735610526 200.50438304345425 L 163.71850668129412 200.99405341513852 L 163.4377884443591 201.48404549940724 L 163.16003972178095 201.97435556917728 L 162.88525762517736 202.4649799120008 L 162.61343930113077 202.95591482986208 L 162.3445819310186 203.4471566389755 L 162.078682730846 203.93870166958644 L 161.81573895108116 204.4305462657726 L 161.55574787649277 204.9226867852483 L 161.29870682599017 205.4151195991697 L 161.04461315246553 205.90784109194226 L 160.79346424263883 206.4008476610294 L 160.5452575169047 206.8941357167629 L 160.29999042918186 207.38770168215547 L 160.05766046676476 207.88154199271403 L 159.81826515017733 208.37565309625518 L 159.58180203302936 208.87003145272183 L 159.34826870187464 209.36467353400147 L 159.1176627760715 209.8595758237463 L 158.88998190764565 210.35473481719401 L 158.66522378115494 210.8501470209904 L 158.4433861135565 211.34580895301357 L 158.22446665407563 211.84171714219949 L 158.00846318407733 212.33786812836823 L 157.7953735169394 212.8342584620524 L 157.58519549792786 213.33088470432637 L 157.3779270040744 213.82774342663697 L 157.17356594405584 214.3248312106352 L 156.97211025807547 214.8221446480096 L 156.77355791774687 215.3196803403202 L 156.57790692597877 215.81743489883428 L 156.38515531686292 216.315404944363 L 156.19530115556339 216.81358710709887 L 156.0083425382076 217.31197802645517 L 155.82427759177975 217.81057435090543 L 155.64310447401584 218.30937273782487 L 155.46482137330077 218.8083698533321 L 155.28942650856692 219.30756237213276 L 155.11691812919528 219.80694697736325 L 154.94729451491773 220.30652036043614 L 154.7805539757216 220.80627922088598 L 154.6166948517558 221.30622026621666 L 154.45571551323886 221.80634021174933 L 154.29761436036904 222.30663578047097 L 154.1423898232355 222.80710370288472 L 153.99004036173204 223.30774071686005 L 153.84056446547206 223.80854356748452 L 153.69396065370563 224.30950900691616 L 153.5502272488674 224.81063459155925 L 153.40936331584172 225.31191538752006 L 153.27136719755208 225.8133490818244 L 153.13623753152712 226.31493245226676 L 153.00397298448974 226.81666228308003 L 152.8745722522885 227.31853536478673 L 152.74803405983064 227.8205484940511 L 152.62435716101635 228.32269847353237 L 152.50354033867438 228.82498211173854 L 152.38558240449922 229.3273962228811 L 152.2704821989895 229.82993762673107 L 152.15823859138823 230.3326031484753 L 152.04885047962375 230.83538961857397 L 151.94231679025287 231.33829387261844 L 151.8386364784048 231.8413127511906 L 151.73780852772688 232.34444309972227 L 151.6398319503318 232.84768176835556 L 151.54470578674568 233.3510256118042 L 151.45242910585836 233.85447148921517 L 151.3630010048746 234.3580162640311 L 151.2764206092668 234.86165680385366 L 151.19268707272937 235.36538998030687 L 151.11179957713418 235.86921266890195 L 151.03375733248785 236.37312174890178 L 150.9585595768901 236.8771141031866 L 150.88620557649398 237.38118661812018 L 150.81669462546697 237.8853361834161 L 150.75002604595414 238.38955969200478 L 150.68619918804222 238.89385403990167 L 150.62521342972556 239.39821612607432 L 150.56706817687322 239.90264285231154 L 150.51176286319765 240.4071311230919 L 150.45929695022483 240.9116778454532 L 150.40966992726578 241.41627992886214 L 150.36288131138969 241.92093428508426 L 150.31893064739816 242.42563782805436 L 150.2778175078014 242.93038747374734 L 150.23954149279544 243.43518014004889 L 150.204102230241 243.94001274662725 L 150.17149937564375 244.44488221480427 L 150.14173261213614 244.94978546742783 L 150.11480165046052 245.4547194287432 L 150.09070622895388 245.959681024266 L 150.06944611353393 246.464667180654 L 150.0510210976867 246.9696748255803 L 150.0354310024555 247.47470088760588 L 150.02267567643165 247.97974229605222 L 150.01275499574615 248.48479598087502 L 150.00566886406332 248.98985887253667 L 150.00141721008993 249.49492834481333 L 150 249.99999999999997 L 150.00141721008993 250.50507165518664 L 150.00566886406332 251.01014112746336 L 150.01275499574615 251.51520401912495 L 150.02267567643165 252.02025770394772 L 150.0354310024555 252.52529911239415 L 150.0510210976867 253.03032517441966 L 150.06944611353393 253.53533281934597 L 150.09070622895388 254.04031897573398 L 150.11480165046052 254.54528057125674 L 150.14173261213614 255.0502145325722 L 150.17149937564375 255.55511778519568 L 150.204102230241 256.0599872533728 L 150.23954149279544 256.56481985995106 L 150.2778175078014 257.0696125262527 L 150.31893064739816 257.5743621719456 L 150.36288131138969 258.07906571491577 L 150.40966992726578 258.5837200711379 L 150.45929695022485 259.08832215454686 L 150.51176286319765 259.592868876908 L 150.56706817687322 260.0973571476884 L 150.62521342972556 260.6017838739256 L 150.68619918804222 261.1061459600983 L 150.75002604595414 261.6104403079952 L 150.816694625467 262.11466381658397 L 150.88620557649398 262.6188133818798 L 150.9585595768901 263.1228858968134 L 151.03375733248782 263.6268782510982 L 151.11179957713418 264.130787331098 L 151.19268707272934 264.63461001969307 L 151.2764206092668 265.13834319614637 L 151.3630010048746 265.6419837359689 L 151.45242910585836 266.14552851078486 L 151.54470578674565 266.64897438819577 L 151.63983195033177 267.1523182316444 L 151.73780852772688 267.65555690027776 L 151.8386364784048 268.15868724880943 L 151.94231679025287 268.6617061273816 L 152.04885047962375 269.1646103814261 L 152.15823859138823 269.66739685152464 L 152.2704821989895 270.17006237326893 L 152.38558240449922 270.6726037771189 L 152.50354033867436 271.17501788826144 L 152.62435716101635 271.67730152646755 L 152.74803405983064 272.1794515059488 L 152.8745722522885 272.6814646352133 L 153.0039729844897 273.18333771691994 L 153.13623753152712 273.6850675477332 L 153.27136719755208 274.1866509181756 L 153.40936331584172 274.68808461248 L 153.55022724886743 275.1893654084408 L 153.69396065370563 275.6904909930838 L 153.84056446547206 276.19145643251545 L 153.99004036173204 276.69225928313995 L 154.1423898232355 277.1928962971153 L 154.29761436036907 277.69336421952903 L 154.45571551323889 278.19365978825067 L 154.6166948517558 278.6937797337833 L 154.7805539757216 279.1937207791141 L 154.94729451491776 279.69347963956386 L 155.1169181291953 280.1930530226368 L 155.28942650856692 280.6924376278672 L 155.46482137330077 281.19163014666793 L 155.64310447401587 281.69062726217516 L 155.82427759177972 282.1894256490945 L 156.00834253820756 282.6880219735448 L 156.19530115556339 283.1864128929011 L 156.3851553168629 283.684595055637 L 156.57790692597874 284.18256510116566 L 156.77355791774684 284.68031965967975 L 156.97211025807547 285.17785535199033 L 157.1735659440558 285.67516878936476 L 157.3779270040744 286.17225657336303 L 157.58519549792786 286.66911529567363 L 157.79537351693938 287.16574153794755 L 158.00846318407733 287.66213187163174 L 158.22446665407563 288.1582828578005 L 158.44338611355647 288.6541910469863 L 158.6652237811549 289.14985297900955 L 158.88998190764565 289.645265182806 L 159.11766277607146 290.1404241762536 L 159.34826870187464 290.6353264659985 L 159.58180203302936 291.1299685472782 L 159.8182651501773 291.6243469037448 L 160.0576604667647 292.1184580072859 L 160.29999042918183 292.6122983178445 L 160.54525751690468 293.1058642832371 L 160.7934642426388 293.5991523389706 L 161.04461315246553 294.0921589080577 L 161.29870682599014 294.58488040083023 L 161.55574787649277 295.0773132147517 L 161.81573895108116 295.56945373422735 L 162.07868273084603 296.0612983304136 L 162.34458193101858 296.55284336102443 L 162.6134393011308 297.0440851701379 L 162.8852576251774 297.5350200879992 L 163.16003972178092 298.0256444308227 L 163.4377884443591 298.5159545005927 L 163.7185066812941 299.0059465848614 L 164.00219735610523 299.4956169565457 L 164.28886342762343 299.9849618737217 L 164.57850789016842 300.47397757941764 L 164.87113377372884 300.96266030140475 L 165.1667441441445 301.45100625198614 L 165.46534210329142 301.9390116277834 L 165.7669307892696 302.4266726095216 L 166.0715133765935 302.91398536181214 L 166.3790930763849 303.400946032933 L 166.68967313656898 303.88755075460733 L 167.003256842073 304.37379564178 L 167.3198475150274 304.85967679239116 L 167.6394485149703 305.3451902871483 L 167.96206323905457 305.83033218929535 L 168.28769512225793 306.3150985443805 L 168.6163476375956 306.7994853800201 L 168.9480242963366 307.2834887056615 L 169.2827286482223 307.7671045123426 L 169.62046428168867 308.25032877244956 L 169.961234824091 308.73315743947114 L 170.3050439419322 309.21558644775104 L 170.65189534109408 309.69761171223774 L 171.0017927670714 310.1792291282308 L 171.35474000521012 310.66043457112573 L 171.71074088094767 311.1412238961546 L 172.06979926005764 311.62159293812533 L 172.431919048897 312.1015375111569 L 172.79710419465687 312.5810534084121 L 173.1653586856173 313.06013640182783 L 173.53668655140453 313.5387822418414 L 173.91109186325258 314.01698665711444 L 174.28857873426776 314.4947453542536 L 174.66915131969733 314.97205401752797 L 175.05281381720144 315.44890830858327 L 175.4395704671286 315.92530386615255 L 175.82942555279527 316.4012363057643 L 176.22238340076927 316.8767012194465 L 176.6184483811563 317.3516941754269 L 177.0176249078912 317.8262107178313 L 177.4199174390326 318.3002463663761 L 177.82533047706156 318.7737966160592 L 178.23386856918464 319.246856936846 L 178.64553630764055 319.7194227733521 L 179.06033833001118 320.19148954452237 L 179.47827931953668 320.6630526433054 L 179.89936400543505 321.1341074363248 L 180.3235971632258 321.6046492635462 L 180.7509836150578 322.0746734379398 L 181.18152823004198 322.5441752451395 L 181.61523592458812 323.0131499430972 L 182.05211166274628 323.48159276173266 L 182.49216045655314 323.94949890258 L 182.93538736638249 324.41686353842863 L 183.38179750130038 324.8836818129598 L 183.83139601942597 325.3499488403797 L 184.28418812829628 325.81565970504596 L 184.740179085236 326.2808094610913 L 185.1993741977328 326.74539313204065 L 185.66177882381697 327.2094057104246 L 186.1273983724473 327.67284215738766 L 186.5962383039004 328.1356974022898 L 187.06830413016763 328.597966342306 L 187.54360141535483 329.05964384201656 L 188.02213577608967 329.5207247329955 L 188.50391288193322 329.98120381339146 L 188.98893845579738 330.44107584750327 L 189.47721827436837 330.9003355653508 L 189.96875816853554 331.35897766223883 L 190.46356402382605 331.8169967983157 L 190.96164178084578 332.27438759812594 L 191.4629974357258 332.7311446501564 L 191.96763704057548 333.1872625063769 L 192.4755667039414 333.6427356817737 L 192.98679259127206 334.0975586538767 L 193.5013209253907 334.5517258622815 L 194.01915798697237 335.00523170816206 L 194.54031011502903 335.458070553779 L 195.06478370740123 335.9102367219803 L 195.59258522125552 336.36172449569386 L 196.1237211735901 336.81252811741456 L 196.65819814174625 337.26264178868274 L 197.19602276392814 337.712059669556 L 197.73720173972828 338.16077587807314 L 198.28174183066164 338.60878448971 L 198.8296498607065 339.0560795368282 L 199.38093271685256 339.5026550081152 L 199.93559734965783 339.9485048480166 L 200.49365077381196 340.39362295616 L 201.05510006870873 340.8380031867706 L 201.61995237902474 341.2816393480769 L 202.18821491530892 341.72452520171026 L 202.7598949545778 342.1666544620927 L 203.33499984092026 342.608020795817 L 203.91353698611107 343.0486178210174 L 204.49551387023286 343.4884391067308 L 205.08093804230643 343.92747817224773 L 205.6698171209307 344.36572848645403 L 206.26215879493176 344.8031834671627 L 206.8579708240203 345.23983648043463 L 207.45726103945964 345.67568083988976 L 208.06003734474265 346.11070980600726 L 208.66630771627817 346.54491658541446 L 209.276080204088 346.9782943301656 L 209.8893629325136 347.4108361370088 L 210.5061641009325 347.84253504664105 L 211.12649198448625 348.2733840429526 L 211.75035493481747 348.70337605225814 L 212.37776138081927 349.132503942517 L 213.008719829394 349.56076052254014 L 213.643238866224 349.98813854118407 L 214.28132715655354 350.4146306865332 L 214.92299344598226 350.8402295850676 L 215.56824656126997 351.2649278008183 L 216.2170954111534 351.68871783450777 L 216.8695489871751 352.1115921226773 L 217.5256163645254 352.5335430368001 L 218.1853077900787 352.9545635735559 L 218.84863042454688 353.3746446406766 L 219.51559460345396 353.7937790522435 L 220.18620974576737 354.21195891051786 L 220.86048535853624 354.62917624804476 L 221.5384310378135 355.0454230266745 L 222.22005646959187 355.4606911365672 L 222.9053714307538 355.8749723951808 L 223.59438579003634 356.2882585462416 L 224.28710950901078 356.7005412586974 L 224.98355264307742 357.1118121256534 L 225.68372534247467 357.5220626632879 L 226.3876378533056 357.9312843097521 L 227.09530051857843 358.3394684240477 L 227.8067237792653 358.74660628488823 L 228.52191817537522 359.15268908953766 L 229.2408943470456 359.5577079526301 L 229.9636630356503 359.9616539049687 L 230.69023508492518 360.36451789230307 L 231.4206214421113 360.76629077408484 L 232.15483315911607 361.1669633222012 L 232.89288139369353 361.56652621968584 L 233.6347774106427 361.9649700594068 L 234.38053258302563 362.36228534273044 L 235.13015839340466 362.75846247816116 L 235.88366643509977 363.1534917799569 L 236.64106841346577 363.54736346671814 L 237.40237614719118 363.9400676599529 L 238.16760156961783 364.3315943826137 L 238.93675673008062 364.7219335576077 L 239.7098537952718 365.1110750062804 L 240.48690505062424 365.49900844686863 L 241.26792290172213 365.8857234929281 L 242.05291987573 366.2712096517274 L 242.84190862284913 366.6554563226152 L 243.63490191779604 367.03845279535363 L 244.43191266130697 367.42018824842205 L 245.23295388166662 367.80065174728725 L 246.03803873626381 368.1798322426407 L 246.84718051317182 368.5577185686018 L 247.6603926327563 368.934299440886 L 248.47768864931143 369.3095634549383 L 249.2990822527223 369.68349908402905 L 250.12458727015664 370.0560946773129 L 250.95421766778554 370.4273384578497 L 251.78798755253365 370.7972185205858 L 252.6259111738608 371.16572283029575 L 253.4680029255717 371.53283921948207 L 254.3142773476608 371.89855538623397 L 255.16474912818714 372.262858892042 L 256.01943310518254 372.6257371595691 L 256.87834426859376 372.98717747037574 L 257.74149776225875 373.3471669625994 L 258.6089088859185 373.7056926285856 L 259.4805930972637 374.0627413124711 L 260.35656601402 374.41829970771636 L 261.23684341606764 374.7723543545865 L 262.1214412476035 375.12489163758124 L 263.01037561933776 375.4758977828085 L 263.90366281073426 375.8253588553049 L 264.8013192722892 376.1732607562982 L 265.703361627854 376.51958922041246 L 266.6098066769975 376.86432981281234 L 267.520671397416 377.20746792628745 L 268.43597294738436 377.5489887782728 L 269.35572866825487 377.8888774078056 L 270.27995608700223 378.2271186724147 L 271.20867291881564 378.56369724494346 L 272.14189706974173 378.8985976103016 L 273.07964663937435 379.23180406214584 L 274.0219399235997 379.56330069948774 L 274.96879541738883 379.8930714232239 L 275.9202318176493 380.22109993259113 L 276.8762680261257 380.5473697215395 L 277.8369231523624 380.8718640750254 L 278.8022165167184 381.1945660652185 L 279.7721676534442 381.51545854762406 L 280.7467963138186 381.83452415711474 L 281.72612246934534 382.1517453038717 L 282.7101663150162 382.46710416923224 L 283.69894827263363 382.7805827014392 L 284.6924889942063 383.09216261129257 L 285.6908093654063 383.40182536769805 L 286.69393050910026 383.70955219311054 L 287.70187378894946 384.01532405886974 L 288.71466081308284 384.31912168042373 L 289.73231343784687 384.62092551243904 L 290.75485377163005 384.920715743792 L 291.78230417876716 385.21847229243895 L 292.8146872835229 385.5141748001614 L 293.852025974161 385.80780262718326 L 294.89434340709323 386.0993348466542 L 295.94166301112074 386.38875023899766 L 296.9940084917611 386.67602728611837 L 298.0514038356674 386.9611441654639 L 299.1138733151418 387.2440787439383 L 300.1814414927451 387.52480857166097 L 301.25413322600434 387.8033108755675 L 302.3319736722227 388.0795625528466 L 303.4149882933947 388.35354016420956 L 304.5032028612233 388.6252199269842 L 305.5966434622535 388.8945777080314 L 306.695336503112 389.161589016475 L 307.79930871586816 389.42622899624234 L 308.90858716350806 389.6884724184069 L 310.0231992455369 389.9482936733285 L 311.14317270369986 390.2056667625828 L 312.2685356278376 390.46056529067494 L 313.39931646187017 390.7129624565293 L 314.53554400991806 390.96283104474793 L 315.67724744256395 391.2101434166308 L 316.82445630325657 391.45487150094897 L 317.9772005148635 391.69698678446355 L 319.1355103863735 391.93646030217997 L 320.2994166197589 392.17326262733206 L 321.4689503169949 392.4073638610821 L 322.64414298724535 392.6387336219317 L 323.8250265542195 392.86734103483013 L 325.01163336370206 393.09315471997195 L 326.20399619126374 393.316142781271 L 327.4021482501579 393.5362727945021 L 328.6061231994065 393.7535117950956 L 329.8159551520828 393.9678262655752 L 331.0316786837976 394.179182122625 L 332.25332884139067 394.38754470377205 L 333.4809411518395 394.5928787536719 L 334.71455163138774 394.7951484099819 L 335.9541967948999 394.99431718880606 L 337.19991366545435 395.190347969699 L 338.4517397841721 395.38320298020824 L 339.70971322030215 395.57284377994193 L 340.9738725815554 395.7592312441403 L 342.24425702471126 395.942325546736 L 343.52090626649044 396.12208614288005 L 344.80386059471476 396.298471750916 L 346.0931608797555 396.4714403337797 L 347.38884858627887 396.6409490798021 L 348.6909657853065 396.8069543828929 L 349.99955516658906 396.96941182207945 L 351.31466005131523 397.128276140377 L 352.63632440515505 397.2835012229616 L 353.9645928516604 397.4350400746201 L 355.29951068602304 397.5828447964455 L 356.64112388921114 397.7268665617496 L 357.98947914249163 397.86705559115876 L 359.3446238423521 398.00336112686006 L 360.7066061158364 398.1357314059629 L 362.0754748363078 398.26411363293835 L 363.45127963965433 398.388453951098 L 364.83407094094866 398.50869741307076 L 366.2238999515836 398.62478795023617 L 367.6208186968919 398.7366683410679 L 369.02488003427567 398.84428017834114 L 370.43613767185514 398.9475638351538 L 371.8546461876598 399.04645842970956 L 373.28046104937994 399.14090178880804 L 374.71363863469435 399.23083040998335 L 376.15423625220467 399.31617942223227 L 377.6023121629829 399.3968825452656 L 379.0579256027677 399.4728720472169 L 380.5211368048258 399.5440787007374 L 381.9920070235016 399.6104317374009 L 383.470598558486 399.67185880034197 L 384.95697477982105 399.72828589504087 L 386.45120261715704 399.77963741839403 L 387.95334303385613 399.82583578444394 L 389.4634649677504 399.86680184967463 L 390.981636340662 399.9024545362718 L 392.50792628245574 399.93271085160393 L 394.0424051611676 399.95748582585617 L 395.5851446140957 399.97669244708027 L 397.1362175798914 399.9902415935287 L 398.69569833168873 399.99804196313596 L 400.2636625113107 400 L 401.8401871645947 399.99601981770974 L 403.4253507778826 399.98600311935195 L 405.0192333157163 399.96984911402456 L 406.62191625978954 399.9474544296698 L 408.2334826492056 399.9187130220296 L 409.8540171220868 399.88351607951404 L 411.4836059585981 399.8417519237592 L 413.1223371254311 399.7933059056368 L 414.7703003218145 399.73806029646266 L 416.4275870271075 399.67589417413365 L 418.0942905500394 399.6066833039073 L 419.7705060796633 399.53030001351453 L 421.45633073809154 399.4466130622807 L 423.15186363508263 399.35548750390296 L 424.8572059245588 399.2567845425112 L 426.57246086312557 399.15036138161224 L 428.2977338706781 399.0360710654886 L 430.03313259317883 398.91376231259426 L 431.7787669676879 398.78327934045524 L 433.5347492897445 398.64446168154876 L 435.30119428318517 398.49714398959463 L 437.0782191725025 398.34115583565244 L 438.86594375784097 398.176321493371 L 440.6644904927358 398.00245971268834 L 442.473984564699 397.8193834812272 L 444.2945539787686 397.62689977257077 L 446.12632964413007 397.42480928054226 L 447.96944546392695 397.2129061385415 L 449.8240384283837 396.9909776229162 L 451.6902487113561 396.7588038392628 L 453.56821977044217 396.5161573904626 L 455.45809845076593 396.26280302516 L 457.360035092573 395.99849726528 L 459.2741836427544 395.7229880110669 L 461.20070177042743 395.43601412199246 L 463.13975098669476 395.1373049717421 L 465.0914967687015 394.8265799753292 L 467.0561086881012 394.50354808621387 L 469.0337605440383 394.1679072611146 L 471.024630500741 393.81934388998764 L 473.0289012298053 393.45753218842003 L 475.04676005723763 393.08213354942166 L 477.078399115293 392.69279585132045 L 479.1240154991333 392.28915271814685 L 481.183811428278 391.8708227285449 L 483.2579944127959 391.4374085688575 L 485.34677742413066 390.988496125598 L 487.4503790703821 390.52365351204116 L 489.56902377581224 390.0424300231232 L 491.70294196423487 389.54435501223935 L 493.85237024585507 389.02893668285344 L 496.01755160698747 388.49566078707596 L 498.19873560193275 387.94398922251867 L 500.39617854609327 387.3733585177796 L 502.6101437092058 386.7831781958332 L 504.84090150726644 386.1728290033959 L 507.0887296914381 385.5416609929533 L 509.35391353179773 384.8889914426013 L 511.63674599335206 384.21410259707966 L 513.9375279011538 383.5162392113916 L 516.2565680906857 382.7946058761287 L 518.5941835388558 382.04836410103303 L 520.9506994699536 381.2766291303784 L 523.3264494297155 380.47846646037647 L 525.7217753191962 379.6528880249449 L 528.137027378377 378.7988480117412 L 530.5725641072903 377.9152382652637 L 533.0287521098296 377.00088322794664 L 535.5059658422063 376.0545343634037 L 538.0045872441009 375.0748639981451 L 540.5250052257535 374.0604585090296 L 543.0676199666976 373.00980868456384 L 545.6328236326085 371.9213089620165 L 548.2210249117436 370.79323750965057 L 550.8326314435136 369.62375241441146 L 553.4680517287443 368.41087851634893 L 556.1276927577486 367.15249440494375 L 558.8119570387887 365.8463178346302 L 561.5212388875711 364.4898893332614 L 564.255919804154 363.08055374108557 L 567.0163627201636 361.6154393756374 L 569.8029048439381 360.09143446887526 L 572.6158487604928 358.5051604660948 L 575.4554513525343 356.85294171072104 L 578.321909991822 355.13077096453856 L 581.2153452989662 353.33427012907805 L 584.135779573171 351.458645441742 L 587.083109737089 349.498636322368 L 590.0570733062584 347.44845694803234 L 593.0572054516148 345.30172954680006 L 596.0827846427984 343.0514083441392 L 599.1327635936485 340.68969310244836 L 602.205681219956 338.20793132114625 L 605.2995499870057 335.5965085065286 L 608.411711277231 332.8447266324116 L 611.5386491388713 329.9406722479936 L 614.6757498787175 326.8710780575298 L 617.8169913705758 323.6211858501292 L 620.954541733593 320.17462542015295 L 624.0782425854983 316.5133351494939 L 627.1749485043109 312.6175674964653 L 630.2276993078435 308.4660425530543 L 633.2146778237648 304.0363979639895 L 636.1080220596141 299.30601783693965 L 638.8724866161763 294.2535741820754 L 641.4641979531533 288.8615038084769 L 643.8298843949618 283.11973296124427 L 645.907271905553 277.0307550270792 L 647.6276041938312 270.6156625789324 L 648.9212238875441 263.9198047010549 L 649.726410312333 257.0156433811728" /><text  class="poloto_text poloto_legend_text" alignment-baseline="middle" text-anchor="start" font-size="large" x="675" y="150" >Earth</text><rect  class="poloto_linefill poloto_legend_icon poloto1fill poloto1legend" x="680" y="126.25" width="50" height="7.5" rx="5" ry="5" /><path  class="poloto_linefill poloto1fill" d=" M 622.7563509461097 400 L 622.7563509461097 250 L 622.7562275764606 249.95287639405083 L 622.7558574723835 249.9057546484609 L 622.7552406484897 249.8586366235161 L 622.7543771291303 249.81152417935536 L 622.7532669483955 249.7644191758973 L 622.7519101501133 249.71732347276676 L 622.7503067878479 249.67023892922154 L 622.7484569248973 249.6231674040787 L 622.7463606342908 249.57611075564157 L 622.7440179987864 249.52907084162595 L 622.7414291108673 249.48204951908716 L 622.7385940727385 249.43504864434647 L 622.7355129963223 249.38807007291797 L 622.7321860032545 249.34111565943516 L 622.7286132248789 249.29418725757796 L 622.7247948022427 249.24728671999927 L 622.7207308860909 249.20041589825203 L 622.7164216368596 249.15357664271602 L 622.711867224671 249.10677080252486 L 622.7070678293252 249.06000022549293 L 622.7020236402941 249.0132667580426 L 622.6967348567136 248.96657224513106 L 622.6912016873762 248.9199185301778 L 622.6854243507216 248.87330745499156 L 622.6794030748292 248.82674085969782 L 622.6731380974088 248.78022058266598 L 622.6666296657909 248.7337484604369 L 622.6598780369172 248.68732632765048 L 622.6528834773304 248.64095601697298 L 622.6456462631639 248.59463935902485 L 622.6381666801304 248.54837818230848 L 622.6304450235112 248.5021743131359 L 622.6224815981438 248.45602957555676 L 622.6142767184108 248.40994579128625 L 622.6058307082268 248.36392477963332 L 622.5971439010258 248.31796835742864 L 622.588216639748 248.27207833895315 L 622.5790492768264 248.22625653586616 L 622.5696421741728 248.18050475713397 L 622.5599957031636 248.1348248089585 L 622.5501102446249 248.0892184947059 L 622.5399861888177 248.04368761483533 L 622.5296239354223 247.998233966828 L 622.5190238935227 247.95285934511605 L 622.5081864815905 247.90756554101193 L 622.4971121274682 247.86235434263742 L 622.4858012683524 247.8172275348532 L 622.4742543507762 247.77218689918843 L 622.4624718305922 247.72723421377026 L 622.4504541729543 247.6823712532537 L 622.438201852299 247.63759978875166 L 622.4257153523267 247.5929215877649 L 622.4129951659834 247.54833841411224 L 622.4000417954401 247.5038520278611 L 622.3868557520735 247.4594641852578 L 622.3734375564463 247.41517663865838 L 622.3597877382858 247.37099113645934 L 622.3459068364634 247.32690942302864 L 622.3317953989734 247.28293323863684 L 622.3174539829113 247.23906431938843 L 622.3028831544513 247.19530439715322 L 622.288083488825 247.151655199498 L 622.2730555702979 247.10811844961836 L 622.2577999921464 247.06469586627063 L 622.2423173566345 247.02138916370404 L 622.2266082749904 246.9782000515931 L 622.2106733673816 246.93513023496993 L 622.1945132628908 246.89218141415722 L 622.1781285994916 246.84935528470083 L 622.1615200240223 246.80665353730302 L 622.1446881921609 246.7640778577557 L 622.1276337683995 246.72162992687376 L 622.1103574260173 246.67931142042883 L 622.092859847055 246.6371240090831 L 622.075141722287 246.59506935832331 L 622.0572037511943 246.5531491283951 L 622.0390466419375 246.51136497423732 L 622.020671111328 246.46971854541687 L 622.0020778848007 246.42821148606345 L 621.9832676963838 246.38684543480466 L 621.9642412886717 246.3456220247014 L 621.9449994127942 246.3045428831833 L 621.9255428283877 246.26360963198454 L 621.9058723035648 246.2228238870798 L 621.8859886148844 246.18218725862042 L 621.86589254732 246.14170135087093 L 621.8455848942302 246.10136776214566 L 621.8250664573264 246.0611880847456 L 621.8043380466414 246.02116390489562 L 621.7834004804972 245.9812968026818 L 621.7622545854732 245.9415883519891 L 621.740901196373 245.90204012043918 L 621.719341156192 245.86265366932844 L 621.6975753160834 245.8234305535666 L 621.6756045353256 245.78437232161502 L 621.6534296812873 245.74548051542592 L 621.6310516293937 245.70675667038114 L 621.608471263092 245.6682023152318 L 621.5856894738165 245.62981897203784 L 621.5627071609531 245.59160815610792 L 621.5395252318042 245.5535713759396 L 621.5161446015527 245.5157101331599 L 621.4925661932257 245.47802592246578 L 621.4687909376586 245.44052023156536 L 621.4448197734578 245.40319454111915 L 621.4206536469635 245.36605032468142 L 621.3962935122133 245.32908904864232 L 621.3717403309035 245.2923121721697 L 621.3469950723518 245.25572114715166 L 621.3220587134583 245.2193174181392 L 621.2969322386681 245.18310242228927 L 621.2716166399312 245.14707758930786 L 621.2461129166642 245.11124434139367 L 621.2204220757103 245.075604093182 L 621.1945451313001 245.0401582516888 L 621.1684831050108 245.00490821625522 L 621.1422370257268 244.9698553784923 L 621.1158079295982 244.93500112222605 L 621.0891968600006 244.90034682344282 L 621.0624048674935 244.865893850235 L 621.0354330097787 244.831643562747 L 621.0082823516591 244.79759731312146 L 620.9809539649962 244.76375644544606 L 620.9534489286677 244.73012229570034 L 620.9257683285256 244.69669619170287 L 620.8979132573525 244.66347945305907 L 620.8698848148189 244.63047339110886 L 620.8416841074397 244.5976793088751 L 620.8133122485306 244.56509850101193 L 620.784770358164 244.53273225375392 L 620.7560595631248 244.50058184486505 L 620.7271809968661 244.46864854358847 L 620.6981357994641 244.43693361059616 L 620.6689251175737 244.40543829793944 L 620.6395501043825 244.37416384899927 L 620.6100119195656 244.34311149843737 L 620.5803117292402 244.3122824721474 L 620.5504507059187 244.28167798720645 L 620.5204300284634 244.25129925182725 L 620.4902508820389 244.22114746531022 L 620.4599144580667 244.1912238179963 L 620.4294219541765 244.16152949121982 L 620.3987745741604 244.13206565726196 L 620.3679735279243 244.10283347930445 L 620.3370200314407 244.0738341113836 L 620.305915306701 244.0450686983448 L 620.274660581666 244.01653837579735 L 620.2432570902191 243.98824427006946 L 620.2117060721163 243.96018749816403 L 620.1800087729376 243.93236916771437 L 620.1481664440382 243.9047903769405 L 620.1161803424989 243.87745221460588 L 620.0840517310759 243.85035575997435 L 620.0517818781519 243.82350208276753 L 620.0193720576855 243.79689224312264 L 619.9868235491608 243.77052729155056 L 619.9541376375373 243.74440826889446 L 619.9213156131989 243.7185362062886 L 619.8883587719026 243.69291212511772 L 619.8552684147284 243.66753703697668 L 619.8220458480267 243.64241194363052 L 619.7886923833678 243.6175378369749 L 619.7552093374891 243.5929156989969 L 619.7215980322441 243.56854650173645 L 619.6878597945495 243.54443120724773 L 619.6539959563331 243.5205707675612 L 619.6200078544814 243.4969661246462 L 619.5858968307865 243.47361821037364 L 619.551664231893 243.4505279464792 L 619.5173114092454 243.4276962445269 L 619.4828397190342 243.40512400587332 L 619.448250522143 243.38281212163173 L 619.4135451840938 243.36076147263714 L 619.378725074994 243.33897292941143 L 619.3437915694818 243.31744735212894 L 619.3087460466724 243.2961855905826 L 619.2735898901028 243.27518848415042 L 619.238324487678 243.25445686176215 L 619.2029512316157 243.23399154186677 L 619.1674715183914 243.21379333240003 L 619.1318867486834 243.19386303075268 L 619.0961983273177 243.17420142373894 L 619.0604076632119 243.1548092875653 L 619.02451616932 243.13568738780017 L 618.988525262577 243.1168364793434 L 618.9524363638421 243.09825730639653 L 618.9162508978434 243.07995060243354 L 618.8799702931209 243.06191709017176 L 618.8435959819709 243.04415748154335 L 618.8071294003889 243.02667247766723 L 618.770571988013 243.0094627688215 L 618.7339251880675 242.9925290344159 L 618.697190447305 242.97587194296528 L 618.6603692159504 242.95949215206318 L 618.6234629476428 242.9433903083556 L 618.5864730993783 242.9275670475158 L 618.549401131453 242.91202299421903 L 618.5122485074047 242.89675876211788 L 618.4750166939552 242.8817749538181 L 618.4377071609531 242.8670721608548 L 618.4003213813145 242.85265096366905 L 618.3628608309662 242.83851193158503 L 618.3253269887864 242.82465562278753 L 618.2877213365471 242.8110825842999 L 618.2500453588548 242.7977933519624 L 618.212300543093 242.78478845041124 L 618.174488379362 242.77206839305765 L 618.1366103604215 242.7596336820677 L 618.0986679816308 242.74748480834245 L 618.0606627408899 242.7356222514987 L 618.022596138581 242.72404647984985 L 617.984469677508 242.71275795038756 L 617.9462848628384 242.70175710876362 L 617.9080432020432 242.6910443892724 L 617.8697462048381 242.6806202148338 L 617.8313953831225 242.6704849969763 L 617.7929922509214 242.66063913582101 L 617.7545383243247 242.65108302006564 L 617.7160351214275 242.64181702696925 L 617.6774841622704 242.63284152233743 L 617.6388869687793 242.6241568605077 L 617.6002450647052 242.61576338433565 L 617.5615599755643 242.60766142518136 L 617.5228332285777 242.5998513028963 L 617.4840663526111 242.5923333258107 L 617.4452608781144 242.58510779072145 L 617.4064183370613 242.57817498288028 L 617.3675402628886 242.57153517598258 L 617.3286281904363 242.56518863215658 L 617.2896836558866 242.55913560195293 L 617.2507081967026 242.55337632433495 L 617.211703351569 242.547911026669 L 617.17267066033 242.54273992471568 L 617.1336116639297 242.53786322262127 L 617.0945279043503 242.53328111290963 L 617.0554209245518 242.52899377647455 L 617.0162922684107 242.52500138257278 L 616.9771434806592 242.52130408881717 L 616.9379761068246 242.51790204117057 L 616.8987916931678 242.51479537393996 L 616.8595917866223 242.51198420977127 L 616.8203779347332 242.50946865964445 L 616.7811516855963 242.5072488228691 L 616.7419145877967 242.50532478708058 L 616.7026681903479 242.50369662823653 L 616.6634140426305 242.50236441061384 L 616.624153694331 242.50132818680623 L 616.5848886953806 242.50058799772205 L 616.5456205958944 242.50014387258264 L 616.5063509461097 242.49999582892133 L 616.467081296325 242.50014387258264 L 616.4278131968388 242.50058799772205 L 616.3885481978883 242.50132818680623 L 616.3492878495888 242.50236441061384 L 616.3100337018714 242.50369662823653 L 616.2707873044226 242.50532478708058 L 616.231550206623 242.5072488228691 L 616.1923239574861 242.50946865964445 L 616.153110105597 242.51198420977127 L 616.1139101990515 242.51479537393996 L 616.0747257853945 242.51790204117057 L 616.03555841156 242.52130408881717 L 615.9964096238086 242.52500138257278 L 615.9572809676675 242.52899377647455 L 615.918173987869 242.53328111290963 L 615.8790902282896 242.53786322262127 L 615.8400312318893 242.54273992471568 L 615.8009985406504 242.547911026669 L 615.7619936955167 242.55337632433495 L 615.7230182363328 242.55913560195293 L 615.6840737017828 242.56518863215658 L 615.6451616293307 242.57153517598258 L 615.606283555158 242.57817498288028 L 615.5674410141049 242.58510779072145 L 615.5286355396082 242.5923333258107 L 615.4898686636416 242.5998513028963 L 615.451141916655 242.60766142518136 L 615.4124568275142 242.61576338433565 L 615.37381492344 242.6241568605077 L 615.3352177299489 242.63284152233743 L 615.2966667707917 242.64181702696925 L 615.2581635678946 242.65108302006564 L 615.2197096412979 242.66063913582101 L 615.1813065090968 242.6704849969763 L 615.1429556873812 242.6806202148338 L 615.1046586901759 242.6910443892724 L 615.066417029381 242.70175710876362 L 615.0282322147114 242.71275795038756 L 614.9901057536383 242.72404647984985 L 614.9520391513294 242.7356222514987 L 614.9140339105885 242.74748480834245 L 614.8760915317978 242.7596336820677 L 614.8382135128574 242.77206839305765 L 614.8004013491263 242.78478845041124 L 614.7626565333644 242.7977933519624 L 614.7249805556723 242.8110825842999 L 614.687374903433 242.82465562278753 L 614.6498410612531 242.83851193158503 L 614.6123805109048 242.85265096366905 L 614.5749947312662 242.8670721608548 L 614.537685198264 242.8817749538181 L 614.5004533848146 242.89675876211788 L 614.4633007607663 242.91202299421903 L 614.426228792841 242.9275670475158 L 614.3892389445766 242.9433903083556 L 614.3523326762689 242.95949215206318 L 614.3155114449143 242.9758719429653 L 614.2787767041518 242.9925290344159 L 614.2421299042062 243.0094627688215 L 614.2055724918305 243.02667247766723 L 614.1691059102484 243.04415748154335 L 614.1327315990984 243.06191709017176 L 614.0964509943759 243.07995060243354 L 614.0602655283772 243.09825730639653 L 614.0241766296423 243.1168364793434 L 613.9881857228993 243.13568738780017 L 613.9522942290075 243.1548092875653 L 613.9165035649016 243.17420142373894 L 613.8808151435359 243.1938630307527 L 613.8452303738279 243.21379333240003 L 613.8097506606036 243.23399154186677 L 613.7743774045414 243.25445686176215 L 613.7391120021165 243.27518848415042 L 613.703955845547 243.2961855905826 L 613.6689103227375 243.31744735212894 L 613.6339768172254 243.33897292941143 L 613.5991567081255 243.36076147263714 L 613.5644513700763 243.38281212163173 L 613.529862173185 243.40512400587332 L 613.4953904829739 243.4276962445269 L 613.4610376603264 243.45052794647918 L 613.4268050614328 243.47361821037367 L 613.3926940377378 243.4969661246462 L 613.3587059358862 243.5205707675612 L 613.3248420976698 243.54443120724773 L 613.2911038599752 243.56854650173645 L 613.2574925547302 243.5929156989969 L 613.2240095088516 243.6175378369749 L 613.1906560441926 243.64241194363052 L 613.1574334774909 243.66753703697668 L 613.1243431203167 243.69291212511772 L 613.0913862790205 243.7185362062886 L 613.058564254682 243.74440826889446 L 613.0258783430585 243.77052729155056 L 612.9933298345338 243.79689224312264 L 612.9609200140674 243.82350208276753 L 612.9286501611434 243.85035575997435 L 612.8965215497204 243.87745221460588 L 612.8645354481811 243.9047903769405 L 612.8326931192817 243.93236916771437 L 612.800995820103 243.96018749816403 L 612.7694448020002 243.98824427006946 L 612.7380413105532 244.01653837579735 L 612.7067865855183 244.0450686983448 L 612.6756818607785 244.0738341113836 L 612.6447283642951 244.10283347930445 L 612.6139273180589 244.13206565726196 L 612.5832799380428 244.16152949121982 L 612.5527874341526 244.1912238179963 L 612.5224510101804 244.22114746531022 L 612.4922718637561 244.25129925182725 L 612.4622511863006 244.28167798720645 L 612.4323901629791 244.3122824721474 L 612.4026899726537 244.34311149843737 L 612.3731517878368 244.37416384899927 L 612.3437767746456 244.40543829793944 L 612.3145660927552 244.43693361059616 L 612.2855208953532 244.46864854358847 L 612.2566423290946 244.50058184486505 L 612.2279315340553 244.53273225375392 L 612.1993896436887 244.56509850101193 L 612.1710177847797 244.5976793088751 L 612.1428170774004 244.63047339110886 L 612.1147886348668 244.66347945305907 L 612.0869335636937 244.69669619170287 L 612.0592529635517 244.73012229570034 L 612.0317479272233 244.76375644544606 L 612.0044195405602 244.79759731312146 L 611.9772688824406 244.831643562747 L 611.9502970247258 244.865893850235 L 611.9235050322186 244.90034682344282 L 611.8968939626211 244.93500112222605 L 611.8704648664925 244.9698553784923 L 611.8442187872085 245.00490821625522 L 611.8181567609192 245.0401582516888 L 611.792279816509 245.075604093182 L 611.7665889755551 245.11124434139367 L 611.7410852522881 245.14707758930786 L 611.7157696535512 245.18310242228927 L 611.690643178761 245.2193174181392 L 611.6657068198676 245.25572114715166 L 611.6409615613157 245.2923121721697 L 611.616408380006 245.32908904864232 L 611.5920482452558 245.36605032468142 L 611.5678821187616 245.40319454111915 L 611.5439109545607 245.44052023156536 L 611.5201356989936 245.47802592246575 L 611.4965572906667 245.5157101331599 L 611.4731766604151 245.5535713759396 L 611.4499947312662 245.59160815610792 L 611.4270124184028 245.62981897203784 L 611.4042306291273 245.6682023152318 L 611.3816502628256 245.70675667038114 L 611.359272210932 245.74548051542592 L 611.3370973568937 245.78437232161502 L 611.3151265761359 245.8234305535666 L 611.2933607360274 245.86265366932844 L 611.2718006958462 245.90204012043918 L 611.2504473067461 245.9415883519891 L 611.2293014117221 245.9812968026818 L 611.2083638455779 246.02116390489562 L 611.1876354348929 246.0611880847456 L 611.1671169979891 246.10136776214566 L 611.1468093448993 246.14170135087093 L 611.126713277335 246.18218725862042 L 611.1068295886544 246.2228238870798 L 611.0871590638316 246.26360963198454 L 611.0677024794251 246.3045428831833 L 611.0484606035477 246.3456220247014 L 611.0294341958355 246.38684543480466 L 611.0106240074188 246.42821148606345 L 610.9920307808911 246.46971854541687 L 610.9736552502818 246.51136497423732 L 610.9554981410249 246.5531491283951 L 610.9375601699323 246.59506935832331 L 610.9198420451643 246.6371240090831 L 610.902344466202 246.67931142042883 L 610.8850681238198 246.72162992687376 L 610.8680137000583 246.7640778577557 L 610.851181868197 246.80665353730302 L 610.8345732927277 246.84935528470083 L 610.8181886293285 246.89218141415722 L 610.8020285248377 246.93513023496993 L 610.786093617229 246.9782000515931 L 610.7703845355848 247.02138916370404 L 610.7549019000729 247.06469586627063 L 610.7396463219214 247.10811844961836 L 610.7246184033943 247.151655199498 L 610.709818737768 247.19530439715322 L 610.6952479093081 247.23906431938843 L 610.6809064932459 247.28293323863684 L 610.6667950557559 247.32690942302864 L 610.6529141539335 247.37099113645934 L 610.639264335773 247.41517663865838 L 610.6258461401458 247.4594641852578 L 610.6126600967792 247.5038520278611 L 610.5997067262358 247.54833841411224 L 610.5869865398925 247.5929215877649 L 610.5745000399203 247.63759978875166 L 610.562247719265 247.6823712532537 L 610.5502300616271 247.72723421377023 L 610.5384475414431 247.77218689918843 L 610.5269006238669 247.8172275348532 L 610.515589764751 247.86235434263742 L 610.5045154106288 247.90756554101193 L 610.4936779986966 247.95285934511605 L 610.483077956797 247.998233966828 L 610.4727157034017 248.04368761483533 L 610.4625916475944 248.0892184947059 L 610.4527061890557 248.1348248089585 L 610.4430597180465 248.18050475713397 L 610.4336526153929 248.22625653586616 L 610.4244852524714 248.27207833895315 L 610.4155579911935 248.31796835742867 L 610.4068711839925 248.3639247796333 L 610.3984251738084 248.40994579128625 L 610.3902202940754 248.45602957555676 L 610.382256868708 248.5021743131359 L 610.3745352120889 248.54837818230848 L 610.3670556290554 248.59463935902485 L 610.3598184148889 248.64095601697298 L 610.3528238553022 248.68732632765048 L 610.3460722264284 248.7337484604369 L 610.3395637948105 248.78022058266595 L 610.3332988173901 248.8267408596978 L 610.3272775414977 248.87330745499156 L 610.3215002048431 248.9199185301778 L 610.3159670355055 248.96657224513106 L 610.3106782519252 249.0132667580426 L 610.3056340628941 249.06000022549293 L 610.3008346675483 249.10677080252486 L 610.2962802553595 249.15357664271602 L 610.2919710061284 249.20041589825203 L 610.2879070899766 249.24728671999927 L 610.2840886673404 249.29418725757796 L 610.2805158889648 249.34111565943516 L 610.277188895897 249.38807007291797 L 610.2741078194808 249.43504864434647 L 610.271272781352 249.48204951908716 L 610.2686838934329 249.52907084162595 L 610.2663412579286 249.57611075564157 L 610.264244967322 249.6231674040787 L 610.2623951043713 249.67023892922154 L 610.260791742106 249.71732347276676 L 610.2594349438239 249.7644191758973 L 610.258324763089 249.81152417935536 L 610.2574612437296 249.8586366235161 L 610.2568444198358 249.9057546484609 L 610.2564743157587 249.95287639405083 L 610.2563509461097 250 L 610.2564743157587 250.04712360594917 L 610.2568444198358 250.0942453515391 L 610.2574612437296 250.1413633764839 L 610.258324763089 250.18847582064464 L 610.2594349438239 250.2355808241027 L 610.260791742106 250.28267652723324 L 610.2623951043713 250.32976107077846 L 610.264244967322 250.3768325959213 L 610.2663412579286 250.42388924435843 L 610.2686838934329 250.47092915837405 L 610.271272781352 250.51795048091284 L 610.2741078194808 250.56495135565353 L 610.277188895897 250.61192992708203 L 610.2805158889648 250.6588843405648 L 610.2840886673404 250.70581274242204 L 610.2879070899766 250.7527132800007 L 610.2919710061284 250.79958410174797 L 610.2962802553595 250.84642335728398 L 610.3008346675483 250.89322919747514 L 610.3056340628941 250.93999977450704 L 610.3106782519252 250.9867332419574 L 610.3159670355055 251.03342775486894 L 610.3215002048431 251.0800814698222 L 610.3272775414977 251.12669254500844 L 610.3332988173901 251.17325914030218 L 610.3395637948105 251.21977941733402 L 610.3460722264284 251.2662515395631 L 610.3528238553022 251.31267367234952 L 610.3598184148889 251.35904398302702 L 610.3670556290554 251.40536064097515 L 610.3745352120889 251.45162181769152 L 610.382256868708 251.4978256868641 L 610.3902202940754 251.54397042444324 L 610.3984251738084 251.59005420871375 L 610.4068711839925 251.63607522036668 L 610.4155579911935 251.68203164257136 L 610.4244852524714 251.72792166104685 L 610.4336526153929 251.77374346413384 L 610.4430597180465 251.81949524286603 L 610.4527061890557 251.8651751910415 L 610.4625916475944 251.9107815052941 L 610.4727157034017 251.95631238516467 L 610.483077956797 252.001766033172 L 610.4936779986966 252.04714065488395 L 610.5045154106288 252.09243445898807 L 610.515589764751 252.13764565736258 L 610.5269006238669 252.1827724651468 L 610.5384475414431 252.22781310081157 L 610.5502300616271 252.27276578622974 L 610.562247719265 252.3176287467463 L 610.5745000399203 252.36240021124834 L 610.5869865398925 252.4070784122351 L 610.5997067262358 252.45166158588776 L 610.6126600967792 252.4961479721389 L 610.6258461401458 252.5405358147422 L 610.639264335773 252.58482336134162 L 610.6529141539335 252.62900886354066 L 610.6667950557559 252.67309057697136 L 610.6809064932459 252.71706676136316 L 610.6952479093081 252.76093568061157 L 610.709818737768 252.80469560284678 L 610.7246184033943 252.848344800502 L 610.7396463219214 252.89188155038164 L 610.7549019000729 252.93530413372937 L 610.7703845355848 252.97861083629596 L 610.786093617229 253.0217999484069 L 610.8020285248377 253.06486976503007 L 610.8181886293285 253.10781858584278 L 610.8345732927277 253.15064471529917 L 610.851181868197 253.19334646269698 L 610.8680137000583 253.2359221422443 L 610.8850681238198 253.27837007312624 L 610.902344466202 253.32068857957117 L 610.9198420451643 253.3628759909169 L 610.9375601699323 253.40493064167669 L 610.9554981410249 253.4468508716049 L 610.9736552502818 253.48863502576268 L 610.9920307808911 253.53028145458313 L 611.0106240074188 253.57178851393655 L 611.0294341958355 253.61315456519534 L 611.0484606035477 253.6543779752986 L 611.0677024794251 253.6954571168167 L 611.0871590638316 253.73639036801544 L 611.1068295886544 253.7771761129202 L 611.126713277335 253.81781274137958 L 611.1468093448993 253.85829864912907 L 611.1671169979891 253.89863223785434 L 611.1876354348929 253.9388119152544 L 611.2083638455779 253.97883609510438 L 611.2293014117221 254.0187031973182 L 611.2504473067461 254.0584116480109 L 611.2718006958462 254.09795987956082 L 611.2933607360274 254.13734633067156 L 611.3151265761359 254.1765694464334 L 611.3370973568937 254.21562767838498 L 611.359272210932 254.25451948457408 L 611.3816502628256 254.29324332961886 L 611.4042306291273 254.3317976847682 L 611.4270124184028 254.37018102796216 L 611.4499947312662 254.40839184389208 L 611.4731766604151 254.4464286240604 L 611.4965572906667 254.4842898668401 L 611.5201356989936 254.52197407753422 L 611.5439109545607 254.55947976843464 L 611.5678821187616 254.59680545888085 L 611.5920482452558 254.63394967531855 L 611.616408380006 254.67091095135768 L 611.6409615613157 254.7076878278303 L 611.6657068198676 254.74427885284834 L 611.690643178761 254.7806825818608 L 611.7157696535512 254.81689757771073 L 611.7410852522881 254.85292241069214 L 611.7665889755551 254.88875565860633 L 611.792279816509 254.924395906818 L 611.8181567609192 254.9598417483112 L 611.8442187872085 254.99509178374478 L 611.8704648664925 255.0301446215077 L 611.8968939626211 255.06499887777395 L 611.9235050322186 255.09965317655718 L 611.9502970247258 255.134106149765 L 611.9772688824406 255.168356437253 L 612.0044195405602 255.20240268687854 L 612.0317479272233 255.23624355455394 L 612.0592529635517 255.26987770429966 L 612.0869335636937 255.30330380829713 L 612.1147886348668 255.33652054694093 L 612.1428170774004 255.36952660889114 L 612.1710177847797 255.4023206911249 L 612.1993896436887 255.43490149898807 L 612.2279315340553 255.46726774624608 L 612.2566423290946 255.49941815513495 L 612.2855208953532 255.53135145641153 L 612.3145660927552 255.56306638940384 L 612.3437767746456 255.59456170206056 L 612.3731517878368 255.62583615100073 L 612.4026899726537 255.65688850156263 L 612.4323901629791 255.6877175278526 L 612.4622511863006 255.71832201279355 L 612.4922718637561 255.74870074817275 L 612.5224510101804 255.77885253468978 L 612.5527874341526 255.8087761820037 L 612.5832799380428 255.83847050878018 L 612.6139273180589 255.86793434273804 L 612.644728364295 255.89716652069555 L 612.6756818607785 255.9261658886164 L 612.7067865855183 255.9549313016552 L 612.7380413105532 255.98346162420265 L 612.7694448020002 256.01175572993054 L 612.800995820103 256.03981250183597 L 612.8326931192817 256.06763083228566 L 612.8645354481811 256.09520962305953 L 612.8965215497204 256.1225477853941 L 612.9286501611434 256.1496442400256 L 612.9609200140674 256.1764979172325 L 612.9933298345338 256.20310775687733 L 613.0258783430585 256.2294727084494 L 613.058564254682 256.25559173110554 L 613.0913862790205 256.2814637937114 L 613.1243431203167 256.3070878748823 L 613.1574334774909 256.3324629630233 L 613.1906560441926 256.3575880563695 L 613.2240095088515 256.38246216302514 L 613.2574925547302 256.4070843010031 L 613.2911038599752 256.4314534982635 L 613.3248420976698 256.4555687927523 L 613.3587059358862 256.4794292324388 L 613.3926940377378 256.5030338753538 L 613.4268050614328 256.5263817896264 L 613.4610376603264 256.5494720535208 L 613.4953904829739 256.57230375547306 L 613.529862173185 256.5948759941267 L 613.5644513700763 256.61718787836827 L 613.5991567081255 256.63923852736286 L 613.6339768172254 256.6610270705886 L 613.6689103227375 256.68255264787103 L 613.703955845547 256.7038144094174 L 613.7391120021165 256.7248115158496 L 613.7743774045413 256.74554313823785 L 613.8097506606036 256.76600845813323 L 613.8452303738279 256.78620666759997 L 613.8808151435359 256.8061369692473 L 613.9165035649016 256.82579857626104 L 613.9522942290075 256.8451907124347 L 613.9881857228993 256.8643126121998 L 614.0241766296423 256.8831635206566 L 614.0602655283772 256.90174269360347 L 614.0964509943759 256.92004939756646 L 614.1327315990984 256.93808290982827 L 614.1691059102484 256.9558425184566 L 614.2055724918305 256.97332752233274 L 614.2421299042062 256.9905372311785 L 614.2787767041518 257.0074709655841 L 614.3155114449143 257.02412805703466 L 614.3523326762689 257.04050784793685 L 614.3892389445766 257.05660969164444 L 614.426228792841 257.0724329524842 L 614.4633007607663 257.087977005781 L 614.5004533848146 257.1032412378821 L 614.537685198264 257.1182250461819 L 614.5749947312662 257.13292783914517 L 614.6123805109048 257.147349036331 L 614.6498410612531 257.161488068415 L 614.687374903433 257.17534437721247 L 614.7249805556723 257.1889174157001 L 614.7626565333644 257.2022066480376 L 614.8004013491263 257.21521154958873 L 614.8382135128574 257.2279316069423 L 614.8760915317978 257.2403663179323 L 614.9140339105885 257.25251519165755 L 614.9520391513292 257.26437774850126 L 614.9901057536383 257.27595352015015 L 615.0282322147114 257.2872420496125 L 615.066417029381 257.2982428912364 L 615.1046586901759 257.3089556107276 L 615.1429556873812 257.31937978516623 L 615.1813065090968 257.3295150030237 L 615.2197096412979 257.33936086417896 L 615.2581635678946 257.34891697993436 L 615.2966667707917 257.35818297303075 L 615.3352177299489 257.36715847766254 L 615.37381492344 257.3758431394923 L 615.4124568275142 257.38423661566435 L 615.451141916655 257.3923385748186 L 615.4898686636416 257.4001486971037 L 615.5286355396082 257.4076666741893 L 615.5674410141049 257.41489220927855 L 615.606283555158 257.4218250171197 L 615.6451616293307 257.4284648240174 L 615.6840737017828 257.4348113678434 L 615.7230182363328 257.4408643980471 L 615.7619936955167 257.446623675665 L 615.8009985406504 257.452088973331 L 615.8400312318893 257.45726007528435 L 615.8790902282896 257.46213677737876 L 615.918173987869 257.46671888709034 L 615.9572809676675 257.4710062235255 L 615.9964096238086 257.4749986174272 L 616.03555841156 257.47869591118285 L 616.0747257853945 257.4820979588294 L 616.1139101990515 257.48520462606007 L 616.153110105597 257.4880157902287 L 616.1923239574861 257.4905313403556 L 616.231550206623 257.4927511771309 L 616.2707873044226 257.49467521291945 L 616.3100337018714 257.4963033717635 L 616.3492878495888 257.49763558938616 L 616.3885481978883 257.49867181319377 L 616.4278131968388 257.49941200227795 L 616.467081296325 257.4998561274174 L 616.5063509461097 257.5000041710787 L 616.5456205958944 257.4998561274174 L 616.5848886953806 257.49941200227795 L 616.624153694331 257.49867181319377 L 616.6634140426305 257.49763558938616 L 616.7026681903479 257.4963033717635 L 616.7419145877967 257.49467521291945 L 616.7811516855963 257.4927511771309 L 616.8203779347332 257.4905313403556 L 616.8595917866223 257.4880157902287 L 616.8987916931678 257.48520462606007 L 616.9379761068246 257.4820979588294 L 616.9771434806592 257.47869591118285 L 617.0162922684107 257.4749986174272 L 617.0554209245518 257.4710062235255 L 617.0945279043503 257.46671888709034 L 617.1336116639297 257.46213677737876 L 617.17267066033 257.45726007528435 L 617.211703351569 257.452088973331 L 617.2507081967026 257.446623675665 L 617.2896836558866 257.4408643980471 L 617.3286281904363 257.4348113678434 L 617.3675402628886 257.4284648240174 L 617.4064183370613 257.4218250171197 L 617.4452608781144 257.41489220927855 L 617.4840663526111 257.4076666741893 L 617.5228332285776 257.4001486971037 L 617.5615599755643 257.3923385748186 L 617.6002450647052 257.38423661566435 L 617.6388869687793 257.3758431394923 L 617.6774841622704 257.36715847766254 L 617.7160351214275 257.35818297303075 L 617.7545383243247 257.34891697993436 L 617.7929922509214 257.33936086417896 L 617.8313953831225 257.3295150030237 L 617.8697462048381 257.31937978516623 L 617.9080432020432 257.3089556107276 L 617.9462848628384 257.2982428912364 L 617.984469677508 257.2872420496125 L 618.022596138581 257.27595352015015 L 618.0606627408899 257.26437774850126 L 618.0986679816308 257.25251519165755 L 618.1366103604215 257.2403663179323 L 618.174488379362 257.2279316069423 L 618.212300543093 257.21521154958873 L 618.2500453588548 257.2022066480376 L 618.2877213365471 257.1889174157001 L 618.3253269887864 257.17534437721247 L 618.3628608309662 257.161488068415 L 618.4003213813145 257.147349036331 L 618.4377071609531 257.13292783914517 L 618.4750166939552 257.1182250461819 L 618.5122485074047 257.1032412378821 L 618.549401131453 257.087977005781 L 618.5864730993783 257.0724329524842 L 618.6234629476427 257.05660969164444 L 618.6603692159504 257.04050784793685 L 618.697190447305 257.0241280570347 L 618.7339251880675 257.0074709655841 L 618.770571988013 256.9905372311785 L 618.8071294003889 256.97332752233274 L 618.8435959819709 256.9558425184566 L 618.8799702931209 256.93808290982827 L 618.9162508978434 256.92004939756646 L 618.9524363638421 256.90174269360347 L 618.988525262577 256.8831635206566 L 619.02451616932 256.8643126121998 L 619.0604076632119 256.8451907124347 L 619.0961983273177 256.82579857626104 L 619.1318867486834 256.8061369692473 L 619.1674715183914 256.78620666759997 L 619.2029512316157 256.76600845813323 L 619.238324487678 256.74554313823785 L 619.2735898901028 256.7248115158496 L 619.3087460466724 256.7038144094174 L 619.3437915694818 256.68255264787103 L 619.378725074994 256.6610270705886 L 619.4135451840938 256.63923852736286 L 619.448250522143 256.61718787836827 L 619.4828397190342 256.5948759941267 L 619.5173114092454 256.57230375547306 L 619.551664231893 256.54947205352084 L 619.5858968307865 256.5263817896263 L 619.6200078544814 256.5030338753538 L 619.6539959563331 256.4794292324388 L 619.6878597945495 256.4555687927523 L 619.7215980322441 256.4314534982635 L 619.7552093374891 256.4070843010031 L 619.7886923833678 256.38246216302514 L 619.8220458480267 256.3575880563695 L 619.8552684147284 256.3324629630233 L 619.8883587719026 256.3070878748823 L 619.9213156131989 256.2814637937114 L 619.9541376375373 256.25559173110554 L 619.9868235491608 256.2294727084494 L 620.0193720576855 256.20310775687733 L 620.0517818781519 256.1764979172325 L 620.0840517310759 256.1496442400256 L 620.1161803424989 256.1225477853941 L 620.1481664440382 256.09520962305953 L 620.1800087729376 256.06763083228566 L 620.2117060721163 256.03981250183597 L 620.2432570902191 256.01175572993054 L 620.274660581666 255.98346162420265 L 620.305915306701 255.9549313016552 L 620.3370200314407 255.9261658886164 L 620.3679735279243 255.89716652069555 L 620.3987745741604 255.86793434273804 L 620.4294219541765 255.83847050878018 L 620.4599144580667 255.8087761820037 L 620.4902508820389 255.77885253468978 L 620.5204300284634 255.74870074817275 L 620.5504507059187 255.71832201279355 L 620.5803117292402 255.6877175278526 L 620.6100119195656 255.65688850156263 L 620.6395501043825 255.62583615100073 L 620.6689251175737 255.59456170206056 L 620.6981357994641 255.56306638940384 L 620.7271809968661 255.53135145641153 L 620.7560595631248 255.49941815513495 L 620.784770358164 255.46726774624608 L 620.8133122485306 255.43490149898807 L 620.8416841074397 255.4023206911249 L 620.8698848148189 255.36952660889114 L 620.8979132573525 255.33652054694093 L 620.9257683285256 255.30330380829713 L 620.9534489286677 255.26987770429966 L 620.9809539649962 255.23624355455394 L 621.0082823516591 255.20240268687854 L 621.0354330097787 255.16835643725304 L 621.0624048674935 255.134106149765 L 621.0891968600006 255.09965317655718 L 621.1158079295982 255.06499887777395 L 621.1422370257268 255.0301446215077 L 621.1684831050108 254.99509178374478 L 621.1945451313001 254.95984174831122 L 621.2204220757103 254.924395906818 L 621.2461129166642 254.88875565860633 L 621.2716166399312 254.85292241069214 L 621.2969322386681 254.81689757771073 L 621.3220587134583 254.7806825818608 L 621.3469950723518 254.74427885284834 L 621.3717403309035 254.7076878278303 L 621.3962935122133 254.67091095135768 L 621.4206536469635 254.63394967531858 L 621.4448197734578 254.59680545888085 L 621.4687909376586 254.55947976843464 L 621.4925661932257 254.52197407753425 L 621.5161446015527 254.4842898668401 L 621.5395252318042 254.4464286240604 L 621.5627071609531 254.40839184389208 L 621.5856894738165 254.37018102796216 L 621.608471263092 254.3317976847682 L 621.6310516293937 254.29324332961886 L 621.6534296812873 254.25451948457408 L 621.6756045353256 254.21562767838498 L 621.6975753160834 254.1765694464334 L 621.719341156192 254.13734633067156 L 621.740901196373 254.09795987956082 L 621.7622545854732 254.0584116480109 L 621.7834004804972 254.0187031973182 L 621.8043380466414 253.97883609510438 L 621.8250664573264 253.9388119152544 L 621.8455848942302 253.89863223785434 L 621.86589254732 253.85829864912907 L 621.8859886148844 253.81781274137958 L 621.9058723035648 253.77717611292022 L 621.9255428283877 253.73639036801544 L 621.9449994127942 253.6954571168167 L 621.9642412886717 253.65437797529862 L 621.9832676963838 253.61315456519534 L 622.0020778848007 253.57178851393655 L 622.020671111328 253.53028145458313 L 622.0390466419375 253.48863502576268 L 622.0572037511943 253.4468508716049 L 622.075141722287 253.40493064167669 L 622.092859847055 253.3628759909169 L 622.1103574260173 253.3206885795712 L 622.1276337683995 253.27837007312624 L 622.1446881921609 253.2359221422443 L 622.1615200240223 253.19334646269698 L 622.1781285994916 253.15064471529917 L 622.1945132628908 253.10781858584278 L 622.2106733673816 253.06486976503007 L 622.2266082749904 253.0217999484069 L 622.2423173566345 252.97861083629596 L 622.2577999921464 252.93530413372937 L 622.2730555702979 252.89188155038164 L 622.288083488825 252.848344800502 L 622.3028831544513 252.80469560284678 L 622.3174539829113 252.76093568061157 L 622.3317953989734 252.71706676136316 L 622.3459068364634 252.67309057697136 L 622.3597877382858 252.62900886354066 L 622.3734375564463 252.58482336134162 L 622.3868557520735 252.5405358147422 L 622.4000417954401 252.4961479721389 L 622.4129951659834 252.45166158588776 L 622.4257153523267 252.4070784122351 L 622.438201852299 252.36240021124834 L 622.4504541729543 252.3176287467463 L 622.4624718305922 252.27276578622977 L 622.4742543507762 252.22781310081157 L 622.4858012683524 252.1827724651468 L 622.4971121274682 252.13764565736258 L 622.5081864815905 252.09243445898807 L 622.5190238935227 252.04714065488395 L 622.5296239354223 252.001766033172 L 622.5399861888177 251.95631238516467 L 622.5501102446249 251.9107815052941 L 622.5599957031636 251.8651751910415 L 622.5696421741728 251.81949524286603 L 622.5790492768264 251.77374346413387 L 622.588216639748 251.72792166104685 L 622.5971439010258 251.68203164257133 L 622.6058307082268 251.63607522036668 L 622.6142767184108 251.59005420871375 L 622.6224815981438 251.54397042444324 L 622.6304450235112 251.4978256868641 L 622.6381666801304 251.45162181769152 L 622.6456462631639 251.40536064097515 L 622.6528834773304 251.35904398302702 L 622.6598780369172 251.31267367234952 L 622.6666296657909 251.2662515395631 L 622.6731380974088 251.21977941733405 L 622.6794030748292 251.1732591403022 L 622.6854243507216 251.12669254500844 L 622.6912016873762 251.0800814698222 L 622.6967348567136 251.03342775486894 L 622.7020236402941 250.9867332419574 L 622.7070678293252 250.93999977450707 L 622.711867224671 250.89322919747516 L 622.7164216368596 250.84642335728398 L 622.7207308860909 250.79958410174797 L 622.7247948022427 250.75271328000073 L 622.7286132248789 250.70581274242204 L 622.7321860032545 250.65888434056484 L 622.7355129963223 250.61192992708206 L 622.7385940727385 250.56495135565353 L 622.7414291108673 250.51795048091284 L 622.7440179987864 250.47092915837405 L 622.7463606342908 250.42388924435843 L 622.7484569248973 250.3768325959213 L 622.7503067878479 250.32976107077846 L 622.7519101501133 250.28267652723324 L 622.7532669483955 250.2355808241027 L 622.7543771291303 250.18847582064464 L 622.7552406484897 250.1413633764839 L 622.7558574723835 250.0942453515391 L 622.7562275764606 250.0471236059492 L 622.7563509461097 250 L 622.7563509461097 400 Z" /><text  class="poloto_labels poloto_text poloto_title" alignment-baseline="start" text-anchor="middle" font-size="x-large" x="400" y="37.5" >Orbit</text><text  class="poloto_labels poloto_text poloto_xname" alignment-baseline="start" text-anchor="middle" font-size="x-large" x="400" y="481.25" >x</text><text  class="poloto_labels poloto_text poloto_yname" alignment-baseline="start" text-anchor="middle" font-size="x-large" transform="rotate(-90,37.5,250)" x="37.5" y="250" >y</text><line  class="poloto_axis_lines" stroke="black" x1="150" x2="150" y1="400" y2="405" /><text  class="poloto_tick_labels poloto_text" alignment-baseline="start" text-anchor="middle" x="150" y="430" > -2</text><line  class="poloto_axis_lines" stroke="black" x1="275" x2="275" y1="400" y2="405" /><text  class="poloto_tick_labels poloto_text" alignment-baseline="start" text-anchor="middle" x="275" y="430" > -1</text><line  class="poloto_axis_lines" stroke="black" x1="400" x2="400" y1="400" y2="405" /><text  class="poloto_tick_labels poloto_text" alignment-baseline="start" text-anchor="middle" x="400" y="430" > 0</text><line  class="poloto_axis_lines" stroke="black" x1="525" x2="525" y1="400" y2="405" /><text  class="poloto_tick_labels poloto_text" alignment-baseline="start" text-anchor="middle" x="525" y="430" > 1</text><line  class="poloto_axis_lines" stroke="black" x1="650" x2="650" y1="400" y2="405" /><text  class="poloto_tick_labels poloto_text" alignment-baseline="start" text-anchor="middle" x="650" y="430" > 2</text><line  class="poloto_axis_lines" stroke="black" x1="150" x2="144" y1="325.0000417107867" y2="325.0000417107867" /><text  class="poloto_tick_labels poloto_text" alignment-baseline="middle" text-anchor="end" x="135" y="325.0000417107867" > -0.5</text><line  class="poloto_axis_lines" stroke="black" x1="150" x2="144" y1="250" y2="250" /><text  class="poloto_tick_labels poloto_text" alignment-baseline="middle" text-anchor="end" x="135" y="250" > 0.0</text><line  class="poloto_axis_lines" stroke="black" x1="150" x2="144" y1="174.99995828921328" y2="174.99995828921328" /><text  class="poloto_tick_labels poloto_text" alignment-baseline="middle" text-anchor="end" x="135" y="174.99995828921328" > 0.5</text><path  stroke="black" fill="none" class="poloto_axis_lines" style="stroke-dasharray:12.5;stroke-dashoffset:-0;" d=" M 150 400 L 650 400" /><path  stroke="black" fill="none" class="poloto_axis_lines" style="stroke-dasharray:7.500004171078672;stroke-dashoffset:-74.99995828921328;" d=" M 150 400 L 150 100" /></svg>